<?xml version="1.0" encoding="UTF-8"?>
<!-- Generator: visioncortex VTracer 1.0.0-alpha.3 -->
<svg version="1.1" xmlns="http://www.w3.org/2000/svg" width="265" height="292">
<path d="M165,86c-.33,.99-.66,1.98-1,3c-3.667,0-7.333,0-11,0c3.286,6.572,9.702,10.09,14,16c4.44-5.262,7.724-5.69,13-1c0-.66,0-1.32,0-2c4.34-.986,6.169-1.505,10,1c2.058-2.058,13.615-1,17-1c.33,.99,.66,1.98,1,3c9.999-8.888,9.967,2.051,17,5c-.802,6.249-5.678,13.29-5.798,18.903c-.073,3.369,3.748,5.517,4.537,8.641C224.922,142.234,220.814,159,215,159c1.323,9.263-6.63,10.823-14,11c-.3,3.806-3.268,15.27-7,17c-5.032,2.333-29.194,.111-35-1c-1.236,3.422-2.759,6.127-5,9c22.289,14.379,48.402-1.952,66.721-14.566c2.622-1.805,9.52-7.851,12.279-8.434c.316-.067,2.961,1.562,3.365,1.844c7.61,5.302,.986,9.974-3.593,14.063C227.169,192.909,221.29,197.667,216,203c12.051,3.425,30.778,6.185,41,13c-.75,7.625-.75,7.625-3,11c-24.221-3.657-47.516-11.584-72.309-10.1c-4.46,.267-11.608,.414-15.691,2.1c-2.875,1.187-3.865,3.201-7.4,3.923c-7.415,1.513-11.242-1.5-18.337-1.163c-5.924,.282-9.072,2.831-14.263,4.24c-7.048,1.914-14.656,.626-22-1c-1.163,10.141-7.797,50.602-25,42c-2.957,5.211-6.175,12.362-10.602,16.501C52.186,298.662,54.492,269.915,56,262c-6.222,6.222-11.354,.266-11.354-6.753c0-7.438,3.56-15.451,6.354-22.247c-13.262,1.175-26.694,3.245-40,3c-2.364-5.221-6.119-17.983-1.137-22.631c2.315-2.16,46.761-3.97,53.137-4.369c2.518-7.873,10.713-19.233,10.249-26.871c-.442-7.265-7.061-11.702-11.04-17.076c-7.365-9.947-9.409-23.542-8.123-35.6c1.434-13.459,4.621-26.735,12.706-37.852C68.879,88.732,73.72,87.136,75,84c1.281-3.138,.298-10.55,0-14c.99,0,1.98,0,3,0c0,.66,0,1.32,0,2c.66,0,1.32,0,2,0c1.819-11.317,7.215-22.189,13-32c-4.391-5.291-8.376-9.872-6-17c2.64,.33,5.28,.66,8,1c-1.877-5.866-1.673-10.95,2-16c6.96,.773,9.321,6.841,17.06,7.087c6.584,.208,13.282-2.026,19.867-2.601c16.437-1.434,38.382,2.758,45.712,19.633c1.581,3.64-.446,9.02,.971,13.238c4.007,11.927,8.429,15.362,4.545,29.397C182.958,82.693,174.087,97.272,165,95c0-2.97,0-5.94,0-9Z" fill="#10070D"/>
<path d="M175,42c-16.116-8.058-23.296,9.123-29.428,19.867c-3.233,5.664-8.158,9.882-7.025,17.125c1.194,7.635,7.82,6.046,10.626,10.751c2.818,4.725,6.188,20.826,6.783,26.453c.169,1.597,.17,3.204,.044,4.804c-4.116,1.372-7.331-.166-11-2c-.33,.66-.66,1.32-1,2c-3.3,0-6.6,0-10,0c-2.854,8.563-17.823,5.882-25,6c-5.178-9.002-3.561-20.934-6-31c-.99,0-1.98,0-3,0c5.449,15.258-3.361,32.997,17,35c-.526,9.116-4.191,10.368-12,14c17.87,8.745-1.521,13.697-11,15c.99,.66,.99,.66,6,4c-.92,11.649-18.756,7.343-26,4c0,.66,0,1.32,0,2c-11.215-5.089-11.844-16.367-17-26c-.33,.66-.33,.66-2,4c-3.782-17.018,.052-39.136,9.87-53.655C67.298,90.755,73.666,87.268,75,84c1.281-3.138,.298-10.55,0-14c.99,0,1.98,0,3,0c0,.66,0,1.32,0,2c.66,0,1.32,0,2,0c1.819-11.32,7.214-22.187,13-32c-4.391-5.291-8.376-9.872-6-17c2.64,.33,5.28,.66,8,1c-1.878-5.87-1.673-10.95,2-16c6.666,.741,9.016,6.516,16.151,7.04c19.188,1.408,29.752-7.562,50.845,1.998C169.631,19.591,178.787,26.426,180,33c.692,3.752-.65,7.659,.373,11.562c.986,3.764,3.804,6.255,4.883,10.116C189.374,69.424,183.812,85.458,171,94c-5.343-4.325-1.866-9.647-5.383-14.805c-3.349-4.912-10.256-6.859-13.766-12.52c-4.092-6.601,2.172-18.756,8.642-22.16c4.539-2.388,9.51-2.426,14.507-2.515Z" fill="#D7332C"/>
<path d="M55,148c-3.782-17.018,.052-39.136,9.87-53.655C67.298,90.755,73.666,87.268,75,84c1.281-3.138,.298-10.55,0-14c.99,0,1.98,0,3,0c0,.66,0,1.32,0,2c.66,0,1.32,0,2,0c1.819-11.32,7.214-22.187,13-32c-4.391-5.291-8.376-9.872-6-17c2.64,.33,5.28,.66,8,1c-1.878-5.87-1.673-10.95,2-16c6.666,.741,9.016,6.516,16.151,7.04c19.188,1.408,29.752-7.562,50.845,1.998C169.631,19.591,178.787,26.426,180,33c.692,3.752-.65,7.659,.373,11.562c.986,3.764,3.804,6.255,4.883,10.116C189.374,69.424,183.812,85.458,171,94c-5.343-4.325-1.866-9.647-5.383-14.805c-3.349-4.912-10.256-6.859-13.766-12.52c-4.171-6.728,2.621-19.715,9.472-22.602C166.012,42.097,171.069,42.671,176,43c-.909-23.008-24.548-28.048-44-26c-7.266,.765-13.558,3.386-21.111,2.384C105.431,18.66,102.385,15.923,98,13c.871,4.941,4,11.711,4,16c-4.025,.066-7.13,.29-11-1c1.342,2.953,6.438,8.018,7,10c.181,.638-14.384,35.604-17,44c1.155-.165,1.155-.165,7-1c.66,1.65,1.32,3.3,2,5c-1.572,1.572-3.942,1.053-6,1c1.479,3.328,2,5.337,2,9c1.32,.33,2.64,.66,4,1c0,.99,0,1.98,0,3c.66,0,1.32,0,2,0c0,4.75-1.081,6-6,6c0,.66,0,1.32,0,2c-.99,.33-.99,.33-6,2c0-1.32,0-2.64,0-4c.66,0,1.32,0,2,0c0-.66,0-1.32,0-2c-3.64,0-7.207,2.397-10,1c0-.99,0-1.98,0-3c-.99,.165-.99,.165-6,1c-1.236,3.627-4.734,15.573-3,19c2.267,4.482,5,1.374,5,8c6.539,.605,8.556,1.022,10,8c1.65,0,3.3,0,5,0c.66-2.97,1.32-5.94,2-9c6.186-.229,9.137,2.255,15,2c-.583-3.936-3.585-34.152-2.58-35.394c.905-1.118,5.053-.638,6.58-.606c1.819,4.265,5.151,29.408,6,30c2.596,1.81,16.44-3.426,20-4c-6.169-10.795-13.279-8.497-13-23c.99,0,1.98,0,3,0c0-.99,0-1.98,0-3c1.711-.159,5.446-.63,7,0c3.982,1.614,15.128,17.821,19,22c-.33,.66-.33,.66-2,4c-3.3,0-6.6,0-10,0c-2.854,8.563-17.823,5.882-25,6c-5.178-9.002-3.561-20.934-6-31c-.99,0-1.98,0-3,0c5.449,15.258-3.361,32.997,17,35c-.526,9.116-4.191,10.368-12,14c17.87,8.745-1.521,13.697-11,15c.99,.66,.99,.66,6,4c-.92,11.649-18.756,7.343-26,4c0,.66,0,1.32,0,2c-11.215-5.089-11.844-16.367-17-26c-.33,.66-.33,.66-2,4Z" fill="#D7382E"/>
<path d="M129,204c-1.98-1.32-3.96-2.64-6-4c1-4,2-8,3-12c-.99,0-1.98,0-3,0c-3.035,13.225-3.597,9.357-14.789,12.115c-4.232,1.042-6.077,4.713-9.211,5.885c-7.907,2.957-26.295-23.409-23-30c16.145,6.624,31.889,7.322,48.25,.563C127.645,175.16,132.499,171,136,171c-7.861,22.983,13.677,9.677,20,16c.33-.66,.66-1.32,1-2c12.36-.173,24.658,.364,37,1c0,.33,0,.66,0,1c-11.394,.07-23.812,1.153-35-1c-1.236,3.422-2.759,6.127-5,9c23.655,15.26,50.69-3.595,69.843-16.709c1.325-.906,8.111-6.267,9.157-6.291c.734-.017,3.41,1.837,4.056,2.361c6.554,5.33-.037,9.754-4.284,13.546C227.169,192.909,221.29,197.667,216,203c12.07,3.431,30.767,6.178,41,13c-.75,7.625-.75,7.625-3,11c-22.863-3.452-45.033-10.864-68.375-10.268c-5.517,.141-14.564,.179-19.625,2.268c-4.774,1.971-6.46,4.252-12.344,4.863c-5.643,.586-10.428-3.011-18.009-1.566c-5.78,1.103-11.22,4.445-16.744,4.772c-3.288,.195-4.483,.351-6.903-2.069c.99,0,1.98,0,3,0c.641-11.167,1.458-16.365-11-19c8.129-8.499,15.891-2,25-2Z" fill="#1E1916"/>
<path d="M202,117c7.826-2.677,5.203-5.474,15-5c-3,2-3,2-5,2c0,1.32,0,2.64,0,4c2.842-1.57,6.488-6,9-6c-1.538,5.653-3.654,16.647-7.158,21.004c-3.447,4.286-10.599,3.482-14.838,6.989c-3.721,3.077-.987,4.564-2.004,8.007c-.241,.817-2.822,2.137-3,3c-.355,1.727,1.265,4.426,1,6c-.92,5.475-3.122,7.064,3,11c-1.488,5.107-3.022,10.055-5,15c-17.333,0-34.667,0-52,0c7.324-24.412,17.66-48.284,27-72c2.64,0,5.28,0,8,0c-2.237,2.043-3.041,3.123-4,6c4.875-2.625,4.875-2.625,6-6c2.64,0,5.28,0,8,0c0,.66,0,1.32,0,2c-1.65,.33-3.3,.66-5,1c0,.99,0,1.98,0,3c7.187-2.331,6.381-6.651,15-6c0,.66,0,1.32,0,2c-3.107,1.036-2.965,.894-4,4c3.609-1.203,4.755-1.264,6-5c2.64,0,5.28,0,8,0c-1.32,1.65-2.64,3.3-4,5Z" fill="#DEADAE"/>
<path d="M56,262c-6.222,6.222-11.354,.266-11.354-6.753c0-7.438,3.56-15.451,6.354-22.247c-13.262,1.175-26.694,3.245-40,3c-2.353-5.195-6.124-18.024-1.135-22.632c5.681-5.245,47.575-.876,58.505-1.29c11.651-.441,29.539-5.034,40.489-1.996C113.251,211.3,112,217.49,112,221c-9.667,1.333-19.333,2.667-29,4c.165,.495,.165,.495,1,3c-3.073,.187-7.558-.092-10.035,1.923C67.114,235.498,61.894,260.188,60,269c-.99-.33-1.98-.66-3-1c-.165-.99-.165-.99-1-6Z" fill="#8C6846"/>
<path d="M98,13c.871,4.941,4,11.711,4,16c-4.025,.066-7.13,.29-11-1c1.342,2.953,6.438,8.018,7,10c.181,.638-14.384,35.604-17,44c1.155-.165,1.155-.165,7-1c0,1.32,0,2.64,0,4c-3.667,0-7.333,0-11,0c1.272-15.936,7.941-31.373,16-45c-4.381-5.279-8.379-9.864-6-17c2.64,.33,5.28,.66,8,1c-1.878-5.87-1.673-10.95,2-16c6.666,.741,9.016,6.516,16.151,7.04c19.188,1.408,29.752-7.562,50.845,1.998C169.631,19.591,178.787,26.426,180,33c.692,3.752-.65,7.659,.373,11.562c.986,3.764,3.804,6.255,4.883,10.116C189.374,69.424,183.812,85.458,171,94c-5.343-4.325-1.866-9.647-5.383-14.805c-3.349-4.912-10.256-6.859-13.766-12.52c-4.171-6.728,2.621-19.715,9.472-22.602C166.012,42.097,171.069,42.671,176,43c-.909-23.008-24.548-28.048-44-26c-7.266,.765-13.558,3.386-21.111,2.384C105.431,18.66,102.385,15.923,98,13Z" fill="#3A2525"/>
<path d="M135,155c1.32-.495,1.32-.495,8-3c-6.915,26.978-43.304,33.055-65.619,21.822C74.26,172.251,72.202,171.596,74,168c8.186,2.519,16.941,3.713,25,0c-.399-4.921-1.75-5.82-6-8c0-.33,0-.66,0-1c3.305-.455,16.301-2.087,18-5c.273-.468,0-4.23,0-5c-1.485-.66-1.485-.66-9-4c8.137-4.069,14.472-4.389,14-15c8.197-3.104,31-11,38-4c-.99,2.64-1.98,5.28-3,8c-5.333,.667-10.667,1.333-16,2c0,.66,0,1.32,0,2c4.667,0,9.333,0,14,0c-3.054,14.396-9.862,8.723-14,17Z" fill="#3370A8"/>
<path d="M56,264c.33,1.32,.66,2.64,1,4c.66,0,1.32,0,2,0c1.957-7.38,8.906-37.461,16-40c2.077-.744,6.724-.086,9,0c-1.409-2.818-3.063-2.548-6-3c0-.33,0-.66,0-1c7.614-.95,15.308-2.197,23-2c0,1.65,0,3.3,0,5c.66,0,1.32,0,2,0c-.165-.66-.165-.66-1-4c3.333,.333,6.667,.667,10,1c0,.33,0,.66,0,1c-2.64,0-5.28,0-8,0c-1.164,10.149-7.798,50.601-25,42c-2.957,5.211-6.175,12.362-10.602,16.501C53.36,297.565,53.991,272.456,56,264Z" fill="#2A110F"/>
<path d="M138,77c-34.751,3.993-34.498-47.308-2.65-49.203c6.148-.366,11.153,.842,15.708,5.091C164.802,45.712,140.069,63.029,138,77Z" fill="#F3E9DC"/>
<path d="M157,197c-1.65,0-3.3,0-5,0c0-.99,0-1.98,0-3c-11.868,4.982-16.79,13.326-29,6c1-4,2-8,3-12c-.99,0-1.98,0-3,0c-3.035,13.225-3.597,9.357-14.789,12.115c-4.232,1.042-6.077,4.713-9.211,5.885c-7.907,2.957-26.295-23.409-23-30c16.145,6.624,31.889,7.322,48.25,.563C127.645,175.16,132.499,171,136,171c-7.861,22.983,13.677,9.677,20,16c.33-.66,.66-1.32,1-2c12.36-.173,24.658,.364,37,1c0,.33,0,.66,0,1c-11.394,.07-23.812,1.153-35-1c-1.228,3.4-2.706,6.184-5,9c.99,.66,1.98,1.32,3,2Z" fill="#D2342C"/>
<path d="M94,160c1.98,1.32,3.96,2.64,6,4c-.92,11.649-18.756,7.343-26,4c0,.66,0,1.32,0,2c-7.845-3.473-13-11.523-13-20c7.54-1.005,7.627-5.474,9-12c10.038,12.807,15.979,10.164,17-6c7.047,3.863,14.683,3.221,16-6c3.292,0,8.306,4.62,14,5c-.526,9.116-4.191,10.368-12,14c17.87,8.745-1.521,13.697-11,15Z" fill="#F4BF37"/>
<path d="M134,171c-9.842,11.287-30.307,13.234-44.096,10.559C85.469,180.699,80.287,178,76,178c2.245,5.961,12.169,27.984,20.068,26.887c4.59-.637,6.096-3.78,9.823-5.289c3.791-1.535,9.021-1.304,13.109-1.598c1.333-3.333,2.667-6.667,4-10c.99,0,1.98,0,3,0c.348,4.877-.583,7.771-3,12c3.61,1.504,7.543,2.271,11,4c-2.44,2.44-21.673-3.543-29,1c9.126,3.334,15.065,9.87,10,20c-4.333-.667-8.667-1.333-13-2c.33,1.32,.66,2.64,1,4c-.66,0-1.32,0-2,0c-.33-1.32-.66-2.64-1-4c4.177-1.591,7.532-2.213,12-2c-.284-2.938-.008-8.35-3-10c-7.623-4.203-46.094,5.635-60,1c0-.66,0-1.32,0-2c2.333-.167,2.333-.167,14-1c2.583-7.75,10.707-19.34,10.249-26.871C72.474,169.375,55.594,166.018,56,142c5.804,5.804,7.063,16.584,12.676,23.478C86.68,187.591,111.859,175.041,134,171Z" fill="#200607"/>
<path d="M175,112c-2.31-.33-4.62-.66-7-1c-6.69,23.606-16.808,47.227-26,70c-1.32,0-2.64,0-4,0c-4.517-15.653,22-49.733,22-67c-.66,0-1.32,0-2,0c-1.565-5.681-4-12.089-4-18c-.66,0-1.32,0-2,0c-.33-2.64-.66-5.28-1-8c2.64,0,5.28,0,8,0c0,.33,0,.66,0,1c-1.98,0-3.96,0-6,0c2.742,6.458,9.846,10.289,14,16c4.44-5.262,7.724-5.69,13-1c0-.66,0-1.32,0-2c4.34-.986,6.169-1.505,10,1c2.058-2.058,13.615-1,17-1c.165,.495,.165,.495,1,3c5.826-5.179,11.589-4.183,13,4c-.66,0-1.32,0-2,0c0-.99,0-1.98,0-3c-.66,0-1.32,0-2,0c0,.99,0,1.98,0,3c-2.31,.33-4.62,.66-7,1c-1.888,5.124-2.191,7-8,7c.66-1.32,1.32-2.64,2-4c-1.98-.33-3.96-.66-6-1c-.33,1.32-.66,2.64-1,4c-1.65,.33-3.3,.66-5,1c.33-1.32,.66-2.64,1-4c.99,0,1.98,0,3,0c0-.66,0-1.32,0-2c-2.31,0-4.62,0-7,0c-2.142,4.591-2.667,6-8,6c0-.99,0-1.98,0-3c1.65-.33,3.3-.66,5-1c0-.66,0-1.32,0-2c-2.64,0-5.28,0-8,0c-.438,4.383-2.075,4.792-6,6c.526-2.72,.41-3.705,3-5Z" fill="#221615"/>
<path d="M163,147c-.99,2.31-1.98,4.62-3,7c-13.532,0,5.432-36.604,8-43c2.64,0,5.28,0,8,0c-2.237,2.043-3.041,3.123-4,6c4.875-2.625,4.875-2.625,6-6c2.64,0,5.28,0,8,0c0,.66,0,1.32,0,2c-1.65,.33-3.3,.66-5,1c0,.99,0,1.98,0,3c7.187-2.331,6.381-6.651,15-6c0,.66,0,1.32,0,2c-3.107,1.036-2.965,.894-4,4c3.609-1.203,4.755-1.264,6-5c2.64,0,5.28,0,8,0c-1.32,1.65-2.64,3.3-4,5c7.826-2.677,5.203-5.474,15-5c-3,2-3,2-5,2c0,1.32,0,2.64,0,4c2.842-1.57,6.488-6,9-6c-2.07,7.608-4.858,14.773-8,22c-3.384-1.128-3.434-1.491-4-5c.99-.33,1.98-.66,3-1c-1.025-9.477-9.403-8.985-17-10c0,.66,0,1.32,0,2c-1.65,.33-3.3,.66-5,1c.66,1.98,1.32,3.96,2,6c-.66,0-1.32,0-2,0c1.932,6.784,2.107,11.548-1,18c-2.902-4.353-1.326-11.245-4.625-14.5c-13.2-13.024-23.41,16.178-6.375,10.5c.33-1.65,.66-3.3,1-5c-1.32-.99-2.64-1.98-4-3c1.98,0,3.96,0,6,0c2.3,4.6,1.236,14.823-3,18c-1.595-4.786-4.843-3.922-9-6c0,.66,0,1.32,0,2c4.256,.448,5.556,.93,7,5c-2.64,0-5.28,0-8,0c.99,.66,1.98,1.32,3,2c-7.926,5.284-8-1.087-8-7Z" fill="#E8B3B2"/>
<path d="M165,86c-.33,.99-.66,1.98-1,3c-4,0-8,0-12,0c0,2.31,0,4.62,0,7c.66,0,1.32,0,2,0c1.786,5.965,4,11.715,4,18c.99-.33,1.98-.66,3-1c-.546,4.587-1.87,7.924-4,12c-7.367-.331-14.756-.378-22.069,.711c-7.035,1.048-19.446,7.334-25.931,5.289c-2.003-.631-4.301-3.294-5.012-5.207C100.637,116.776,101.583,105.498,100,96c.99,0,1.98,0,3,0c3.646,9.744,1.746,21.03,6,30c2.798-.046,9.063-.937,11,1c3.936-1.128,12.128-2.256,14-6c3.3,0,6.6,0,10,0c.165-.495,.165-.495,1-3c3.48,2.32,5.893,2.535,10,3c-.748-11.029-5.499-20.9-6-32c-19.313-3.729-9.428-19.231-3.338-29.22C150.402,52.006,164.855,28.863,176,43c-10.199,.166-13.913-.329-20.562,7.915C140.816,69.043,163.915,70.291,168,81c.868,2.276,.086,7.454,0,10c.495,.165,.495,.165,3,1c-.66,1.32-1.32,2.64-2,4c-.66-.165-.66-.165-4-1c0-2.97,0-5.94,0-9Z" fill="#240604"/>
<path d="M169,90c-2.634-18.048-29.009-20.309-13.639-39.976c3.005-3.844,5.868-7.143,11.067-7.532C188.575,40.837,186.267,84.244,169,90Z" fill="#F0CAA0"/>
<path d="M112,58c-2.634-4.65-1.34-21,5-21c0-1.65,0-3.3,0-5c4.791-1.351,5.614-2.115,6-7c-1.65-.66-3.3-1.32-5-2c0-.66,0-1.32,0-2c-7.08,.524-11.663-1.091-18-4c.66,2.97,1.32,5.94,2,9c-4.822-4.822-4.105-6.514-4-13c5.097,2.548,9.015,5.052,14.884,5.453c7.804,.532,15.037-2.195,22.733-2.68C147.187,15.045,172.323,19.46,176,33c.628,2.313,.046,6.507,0,9c-7.272-2.424-14.715-1.47-21,3c-3.247-29.823-42.293-17.194-43,13Z" fill="#D4392F"/>
<path d="M88,227c-2.666,12.006-13.926,56-29,56c-.61-10.838,5.58-50.309,16-55c3.32-1.495,9.362-1,13-1Z" fill="#D5342B"/>
<path d="M56,262c-6.222,6.222-11.354,.266-11.354-6.753c0-7.438,3.56-15.451,6.354-22.247c.66,0,1.32,0,2,0c0-.66,0-1.32,0-2c-1.98,0-3.96,0-6,0c.33-.99,.66-1.98,1-3c23.582-3.582,23.582-3.582,35-3c.165,.495,.165,.495,1,3c-3.087,.188-7.554-.095-10.035,1.923C67.114,235.498,61.894,260.188,60,269c-.99-.33-1.98-.66-3-1c-.33-1.98-.66-3.96-1-6Z" fill="#070303"/>
<path d="M61,152c-1.333-2.667-2.667-5.333-4-8c-.66,1.32-1.32,2.64-2,4c-3.782-17.018,.052-39.136,9.87-53.655C67.298,90.755,73.666,87.268,75,84c1.281-3.138,.298-10.55,0-14c.99,0,1.98,0,3,0c0,.66,0,1.32,0,2c.66,.33,1.32,.66,2,1c-1,4-2,8-3,12c4.333,0,8.667,0,13,0c-.33,.66-.66,1.32-1,2c-1.65,0-3.3,0-5,0c1.479,3.328,2,5.337,2,9c1.32,.33,2.64,.66,4,1c0,.99,0,1.98,0,3c.66,0,1.32,0,2,0c0,4.75-1.081,6-6,6c0,.66,0,1.32,0,2c-1.98,.66-3.96,1.32-6,2c0-1.32,0-2.64,0-4c.66,0,1.32,0,2,0c0-.66,0-1.32,0-2c-3.64,0-7.207,2.397-10,1c0-.99,0-1.98,0-3c-.99,.165-.99,.165-6,1c-5.225,16.794-5.105,31.638-5,49Z" fill="#D9362E"/>
<path d="M61,224c-3.223,.248-19.553-.458-11-8c2.739-2.415,14.457-1.261,18.251-1.788c2.187-.303,2.832-2.032,4.695-2.414c5.587-1.146,34.847-4.828,37.984-.778c1.84,2.375,1.118,7.18,1.07,9.98c-16.747,2.07-34.12,5.298-51,5c0-.66,0-1.32,0-2Z" fill="#8C6846"/>
<path d="M207,198c.66-.66,1.32-1.32,2-2c.66,.33,1.32,.66,2,1c0,.66,0,1.32,0,2c-1.32-.33-2.64-.66-4-1Zm-41,6c11.9-.79,24.081-2.159,36-2c0-.66,0-1.32,0-2c3-1,3-1,5-1c.165,1.155,.165,1.155,1,7c3.485,1.084,5.852,2.737,9,4c2.738,1.099,8.997,.489,12.305,1.076c8.125,1.44,15.893,4.323,23.695,6.924c-.33,1.32-.66,2.64-1,4c-15.659,.571-31.837-5.906-47.347-8.029c-12.702-1.738-24.955,.21-37.653,.029c-.333-3.333-.667-6.667-1-10Z" fill="#85664A"/>
<path d="M176,152c-2.363-2.526-3.665-3.888-7-5c0-.66,0-1.32,0-2c3.912,1.156,6.875,2.355,10,5c.66-.66,1.32-1.32,2-2c0,.99,0,1.98,0,3c2.64,.33,5.28,.66,8,1c0,.66,0,1.32,0,2c-5.447,.902-9.92,2.052-14,6c.33,.99,.66,1.98,1,3c3.503-4.004,6.603-7.787,11.782-3.594C202.845,171.603,171,186.296,171,168c-2.058,.053-4.428,.572-6-1c-4.333,15.889-13.501,8.097-8-6c.66,0,1.32,0,2,0c.33-1.32,.66-2.64,1-4c-.66,0-1.32,0-2,0c0-.66,0-1.32,0-2c-3.8,1.949-5.538,2.537-6,7c-.99,0-1.98,0-3,0c1.541-5.57,1.638-13.454,9-11c0,.99,0,1.98,0,3c.66,0,1.32,0,2,0c.547-3.284,1.373-6.071,3-9c.66,.33,1.32,.66,2,1c-1.356,2.712-1.065,5.008-1,8c3.75,1.125,3.75,1.125,6,0c-.99-.66-1.98-1.32-3-2c1.822-1.822,6.45-.364,9,0Z" fill="#9A716F"/>
<path d="M94,160c1.98,1.32,3.96,2.64,6,4c-.92,11.649-18.756,7.343-26,4c0,.66,0,1.32,0,2c-7.845-3.473-13-11.523-13-20c7.54-1.005,7.627-5.474,9-12c10.038,12.807,15.979,10.164,17-6c7.047,3.863,14.683,3.221,16-6c3.292,0,8.306,4.62,14,5c-.526,9.116-4.191,10.368-12,14c17.87,8.745-1.521,13.697-11,15Zm-5,1c.66-1.65,1.32-3.3,2-5c8.212-.404,9.254-1.627,16-5c0-.66,0-1.32,0-2c-1.98-.33-3.96-.66-6-1c0-1.65,0-3.3,0-5c.99-.33,1.98-.66,3-1c-1.449-2.897-3.334-3.377-6.428-3.968c-11.412-2.182-8.205,6.889-14.54,9.76c-2.431,1.102-6.595,.02-9.032-.792c0-.66,0-1.32,0-2c-6.918,0-4.507,5.328-11,6c0,1.65,0,3.3,0,5c.66,.33,.66,.33,4,2c0,.99,0,1.98,0,3c.66,0,1.32,0,2,0c1.789,6.934,19.752,7.16,26,7c0-1.32,0-2.64,0-4c-1.32-.33-2.64-.66-4-1c0-.66,0-1.32,0-2c-.66,0-1.32,0-2,0Z" fill="#F6BF39"/>
<path d="M187,203c.66-.66,1.32-1.32,2-2c-4.333-.333-8.667-.667-13-1c0-.33,0-.66,0-1c21.67,.326,33.438-10.854,50.313-22.375c.995-.68,5.908-4.598,6.687-4.625c8.737-.308,6.862,9.626,2.316,13.662C229.902,190.467,224.484,195.274,219,200c-.165-.66-.165-.66-1-4c-2.771,2.313-8,5.364-8,9c5.333,1.667,10.667,3.333,16,5c0,.33,0,.66,0,1c-8.304,.319-11.73-1.365-19-5c0-2.31,0-4.62,0-7c-.825,.165-.825,.165-5,1c0,.66,0,1.32,0,2c-5.081,.847-9.848,1.09-15,1Zm20-4c1.32,0,2.64,0,4,0c-.33-.99-.66-1.98-1-3c-1.699,0-2.064,1.596-3,3Z" fill="#7F644C"/>
<path d="M112,225c.99,0,1.98,0,3,0c.641-11.167,1.458-16.365-11-19c8.806-9.207,17.593-1.057,27.273-1.792c3.394-.257,3.26-3.208,6.727-3.208c0,2.593-1.203,3.353-3,5c9,1.411,12,.734,12,11c-2.5,.333-2.5,.333-15,2c0,.66,0,1.32,0,2c1.98,0,3.96,0,6,0c0,.33,0,.66,0,1c-7.42,.727-20.2,8.8-26,3Z" fill="#170B07"/>
<path d="M203,148c-.99-.66-1.98-1.32-3-2c.935-8.598,12.033-7.033,17-12c.33,.33,.66,.66,1,1c.33-.99,.66-1.98,1-3c7.983,4.378,3.079,27-4,27c.51,4.588-.621,6.149-4,9c-.33-.66-.66-1.32-1-2c-3.441,.177-15.004,1.17-13.666-4.651c.522-2.271,.658-2.345,2.666-3.349c-.66-1.98-1.32-3.96-2-6c2.052-2.248,3.007-3.002,6-4Z" fill="#031023"/>
<path d="M117,48c6.249,2.5,3.827,6.311,7,9c1.97,1.67,14.075,1.047,17,1c0-.66,0-1.32,0-2c1.98-.33,3.96-.66,6-1c0-.66,0-1.32,0-2c.66,0,1.32,0,2,0c-1.796,9.177-9.191,14.753-11,24c-18.061,2.075-24.32-8.696-24-25c.99-.33,1.98-.66,3-1c0-.99,0-1.98,0-3Z" fill="#F1EBDF"/>
<path d="M182,177c-1.32,.33-2.64,.66-4,1c1,2,1,2,4,4c-13.333,0-26.667,0-40,0c1.678-7.551,3.623-13.105,7-20c.99,0,1.98,0,3,0c.706-4.474,.881-7,6-7c0,.66,0,1.32,0,2c.66,0,1.32,0,2,0c0,1.65,0,3.3,0,5c-.99-.33-1.98-.66-3-1c.117,4.573-1.087,8.227-1,13c8.333,.177,7.15-1.35,8-9c2.64,2.64,3.987,1.358,6.658,3.086c4.869,3.152,4.582,6.574,11.342,8.914Z" fill="#ECB6B5"/>
<path d="M171,101c4.032-.336,6.01,.342,9,3c0-.66,0-1.32,0-2c4.34-.986,6.169-1.505,10,1c2.058-2.058,13.615-1,17-1c.165,.495,.165,.495,1,3c5.826-5.179,11.589-4.183,13,4c-.66,0-1.32,0-2,0c0-.99,0-1.98,0-3c-.66,0-1.32,0-2,0c0,.99,0,1.98,0,3c-2.31,.33-4.62,.66-7,1c-1.888,5.124-2.191,7-8,7c.66-1.32,1.32-2.64,2-4c-1.98-.33-3.96-.66-6-1c-.33,1.32-.66,2.64-1,4c-1.65,.33-3.3,.66-5,1c.33-1.32,.66-2.64,1-4c.99,0,1.98,0,3,0c0-.66,0-1.32,0-2c-2.31,0-4.62,0-7,0c-2.166,4.641-2.665,6-8,6c0-.99,0-1.98,0-3c1.65-.33,3.3-.66,5-1c0-.66,0-1.32,0-2c-2.64,0-5.28,0-8,0c-.436,4.356-2.072,4.791-6,6c.526-2.72,.41-3.705,3-5c-2.31-.33-4.62-.66-7-1c0-.33,0-.66,0-1c2.64,0,5.28,0,8,0c0-.66,0-1.32,0-2c-1.98,0-3.96,0-6,0c.33-.99,.66-1.98,1-3c1.32,0,2.64,0,4,0c0-.66,0-1.32,0-2c-1.32-.66-2.64-1.32-4-2Z" fill="#060403"/>
<path d="M112,185c0,.99,0,1.98,0,3c.66,0,1.32,0,2,0c.165,.99,.165,.99,1,6c-4.048,2.024-9.264,3.917-13.006,6.399c-1.309,.868-2.011,2.984-2.994,3.601c-3.673,2.306-13-6.365-13-10c-4.711,0-7.296-9.832-7-14c10.051,2.01,23.181,8.087,33,5Z" fill="#D6332B"/>
<path d="M137,147c-3.149,2.493-3.307,4.208-3,8c1.98,.33,3.96,.66,6,1c-.33,1.32-.66,2.64-1,4c-.66,0-1.32,0-2,0c0,.99,0,1.98,0,3c-.99,0-1.98,0-3,0c-3.241,9.724-14-4.028-14-8c-.99,0-1.98,0-3,0c-2.458-4.347-7.595-15,2-15c0-.66,0-1.32,0-2c.66,0,1.32,0,2,0c0-.66,0-1.32,0-2c2.667-1.333,4.167-.671,7,0c0,.66,0,1.32,0,2c-.66,0-1.32,0-2,0c0,.66,0,1.32,0,2c.66,0,1.32,0,2,0c0,.66,0,1.32,0,2c.99,.165,.99,.165,6,1c0,.99,0,1.98,0,3c.99,.33,1.98,.66,3,1Z" fill="#3172AC"/>
<path d="M118,127c4.75-3,4.75-3,7-3c0-.66,0-1.32,0-2c1.65-.33,3.3-.66,5-1c-6.169-10.795-13.279-8.497-13-23c.99,0,1.98,0,3,0c0-.99,0-1.98,0-3c1.711-.159,5.446-.63,7,0c3.947,1.6,15.174,17.87,19,22c-.66,1.32-1.32,2.64-2,4c-3.3,0-6.6,0-10,0c-1.467,4.401-11.628,8.186-16,6Z" fill="#280606"/>
<path d="M112,61c7.275,10.913,12.047,15.941,26,16c1.637,4.481,3.491,8.672,8,11c.569,.294,2.668,.627,3,1c2.529,2.835,7.325,27.878,7,32c-6.529,2.176-17-5.336-17-12c.66,0,1.32,0,2,0c.389-4.931,1.338-5.685,6-7c0-12.715-5.524-7.572-8-15c-.66,0-1.32,0-2,0c0-2.64,0-5.28,0-8c-7.375,.304-14.182,.208-21-3c0,.99,0,1.98,0,3c-.99,0-1.98,0-3,0c-.333-6-.667-12-1-18Z" fill="#CF3931"/>
<path d="M125,41c8.834-11.325,27.122-3.393,19.63,10.537C137.517,64.764,122.617,55.884,125,41Z" fill="#D3935F"/>
<path d="M135,20c12.973,.204,25.423-2.155,32,11c7.515-2.591,7,2.354,7,8c-2.833,.167-2.833,.167-17,1c-.33-1.32-.66-2.64-1-4c-.66,0-1.32,0-2,0c-1.579-3.534-2.113-5.704-6-7c0-.66,0-1.32,0-2c-5.036-.763-11.313-1.938-13-7Z" fill="#D7352C"/>
<path d="M90,175c9.973,4.986,20.876-1.653,31-1c0-2.751,.839-2.56,3-4c-1.32-.33-2.64-.66-4-1c.165-.495,.165-.495,1-3c4.282,.081,10.832,1.337,13-3c.99,0,1.98,0,3,0c0-.99,0-1.98,0-3c.66,0,1.32,0,2,0c.33-1.32,.66-2.64,1-4c-.66,0-1.32,0-2,0c0-.66,0-1.32,0-2c1.32-.66,2.64-1.32,4-2c1.695,3.39-.178,6.547-2.014,9.547c-11.515,18.803-42.892,21.035-61.196,13.09c-3.335-1.448-6.777-2.662-4.79-6.637c8.186,2.519,16.941,3.713,25,0c-.399-4.921-1.75-5.82-6-8c0-.33,0-.66,0-1c6.564-.916,13.011-2.006,19-5c-1.467,7.334-4.798,6.2-11,6c0,1.32,0,2.64,0,4c.66,0,1.32,0,2,0c0,1.65,0,3.3,0,5c-.99,.33-1.98,.66-3,1c0,.66,0,1.32,0,2c-1.667,.5-1.667,.5-10,3Z" fill="#3B6993"/>
<path d="M50,214c-12.601,2.285-25.228,2.602-38,3c.333,5,.667,10,1,15c10.878-1.253,22.044-3.173,33-3c0,.99,0,1.98,0,3c-11.346,3.034-23.263,4.373-35,4c-2.483-5.482-6.063-17.59-1.149-22.631C12.413,210.742,47.158,211.158,50,214Z" fill="#2C2825"/>
<path d="M72,187c.33,.66,.66,1.32,1,2c10.944,0,9.674,18.74,2,23c-4.517,2.507-21.069,1.644-26,0c0-.66,0-1.32,0-2c4.667-.333,9.333-.667,14-1c2.528-7.585,5.758-14.701,9-22Z" fill="#18181B"/>
<path d="M169,152c3.333,.667,6.667,1.333,10,2c-4.555,4.436-7.136,7.518-8,14c-2.182,.056-4.417,.583-6-1c-4.333,15.889-13.501,8.097-8-6c.66,0,1.32,0,2,0c.33-1.32,.66-2.64,1-4c-.66,0-1.32,0-2,0c0-.66,0-1.32,0-2c-3.8,1.949-5.538,2.537-6,7c-.99,0-1.98,0-3,0c1.541-5.57,1.638-13.454,9-11c0,.99,0,1.98,0,3c.66,0,1.32,0,2,0c.547-3.284,1.373-6.071,3-9c.66,.33,1.32,.66,2,1c-1.356,2.712-1.065,5.008-1,8c3.75,1.125,3.75,1.125,6,0c-.33-.66-.66-1.32-1-2Z" fill="#E2ACAB"/>
<path d="M88,227c-2.666,12.006-13.926,56-29,56c-.61-10.838,5.58-50.309,16-55c3.32-1.495,9.362-1,13-1ZM73,263c.66,0,1.32,0,2,0c5.042-10.805,5.519-17.284,4-29c-1.32-.33-2.64-.66-4-1c-.66,1.98-1.32,3.96-2,6c-8.054,0-13.121,33.075-13,40c1.32,.33,2.64,.66,4,1c4-4.5,4-4.5,4-9c4.571-1.524,5-3.475,5-8Z" fill="#CF312A"/>
<path d="M100,226c-1.504,13.226-4.831,27.958-14,38c-1.32-.33-2.64-.66-4-1c.75-12.532,6.048-25.16,10-37c2.64,0,5.28,0,8,0Z" fill="#CE342D"/>
<path d="M68,230c-1.464,5.38-7.18,32.44-18,30c-1.325-.299-1.283-5.208-1.248-5.956c.199-4.218,4.997-22.084,8.362-23.779c2.317-1.168,8.144-.306,10.886-.265Z" fill="#3F6B97"/>
<path d="M118,70c-11.976-10.778-6.146-30.903,6-39c.66,.33,1.32,.66,2,1c-1.877,2.815-1.606,3-5,3c0,.66,0,1.32,0,2c2.31,0,4.62,0,7,0c0-6.001,10.134-4.289,14-3c0,.66,0,1.32,0,2c.66,0,1.32,0,2,0c-.33,.99-.66,1.98-1,3c-17.232-11.488-28.804,19.342-2,17c0,.66,0,1.32,0,2c-18.369,6.123-15.474-5.737-24-10c0,.99,0,1.98,0,3c-.66,.33-1.32,.66-2,1c-.26,6.51,1.897,11.749,3,18Z" fill="#F2E8D9"/>
<path d="M235,181c-.165-.495-.165-.495-1-3c-11.352,3.763-27.096,23-38,23c0-6.815,6.625-8.7,11.97-12.16c6.877-4.452,13.664-8.983,20.405-13.639c3.477-2.402,4.071-4.088,7.99-1.357C245.846,180.449,225.432,196.345,222,197c-.342,.065-2.54-.847-3-1c1.632-4.283,11.422-15,16-15Z" fill="#282423"/>
<path d="M165,86c-.33,.99-.66,1.98-1,3c-1.32,0-2.64,0-4,0c-.66-1.32-1.32-2.64-2-4c-18.222,6.074-20.679-8.296-11-21c2,2,2,2,3.563,5.25c2.268,4.18,5.536,6.013,9.609,8.293c.603,.481,1.206,.962,1.828,1.457c0,4,0,4-1,6c1.65,0,3.3,0,5,0c0,3.3,0,6.6,0,10c-.33,0-.66,0-1,0c0-2.97,0-5.94,0-9Z" fill="#4A4A48"/>
<path d="M88,81c-1.155,.165-1.155,.165-7,1c1.417-9.603,4.332-19.001,8.569-27.733c1.736-3.579,6.883-10.034,7.322-13.576C97.5,35.788,91,33.53,91,28c3.667,.333,7.333,.667,11,1c0,.33,0,.66,0,1c-2.64,0-5.28,0-8,0c6.467,11.171,6.33,10.358,0,22c2.854-1.171,4.878-2,8-2c0,1.32,0,2.64,0,4c-.66,0-1.32,0-2,0c0,.66,0,1.32,0,2c1.32,.66,2.64,1.32,4,2c0,1.32,0,2.64,0,4c-1.32,0-2.64,0-4,0c0,.66,0,1.32,0,2c-.66,0-1.32,0-2,0c-.33,.66-.66,1.32-1,2c0-.66,0-1.32,0-2c-3.32,3.074-4.688,3.318-9,2c-3.26,9.41-3.26,9.41-4,14c1.32,.33,2.64,.66,4,1Z" fill="#DA362C"/>
<path d="M94,160c1.98,1.32,3.96,2.64,6,4c-.92,11.649-18.756,7.343-26,4c0,.66,0,1.32,0,2c-6.382-2.826-15.27-12.568-12-20c1.207,3.018,1.916,6.458,5,8c0,.99,0,1.98,0,3c3.808,0,1.727,1.531,4,3c3.244,2.096,19.44,3.753,24,4c0-1.32,0-2.64,0-4c-1.32-.33-2.64-.66-4-1c0-.66,0-1.32,0-2c-.66,0-1.32,0-2,0c1.648-9.181,8.053-6.092,16-6c0-.66,0-1.32,0-2c1.32,0,2.64,0,4,0c-.451-4.357-2.428-5.077-6-7c0-.33,0-.66,0-1c21.887,5.674,1.095,13.613-9,15Z" fill="#DBBE5A"/>
<path d="M48,213c-4.333-.333-8.667-.667-13-1c0-.33,0-.66,0-1c14.314-.17,28.584,1.532,43,2c0,.33,0,.66,0,1c-9.245,.661-20.497,.186-29,4c1,2,2,4,3,6c2.97,0,5.94,0,9,0c0,.66,0,1.32,0,2c.66,.33,1.32,.66,2,1c-5,.333-10,.667-15,1c0,.66,0,1.32,0,2c1.65,.33,3.3,.66,5,1c-.33,.66-.66,1.32-1,2c-3.667,0-7.333,0-11,0c0-.33,0-.66,0-1c1.65,0,3.3,0,5,0c0-.99,0-1.98,0-3c-4,.333-8,.667-12,1c.66-1.32,1.32-2.64,2-4c1.32,0,2.64,0,4,0c0-1.32,0-2.64,0-4c-.66,0-1.32,0-2,0c0-1.32,0-2.64,0-4c1.155-.165,1.155-.165,7-1c-1.65-.33-3.3-.66-5-1c2.75-1.473,4.896-2.224,8-3Z" fill="#896646"/>
<path d="M142,153c-2.593,1.431-4,2-7,2c3.034-7.585,10.028-5.746,14-17c-4.667,0-9.333,0-14,0c0-.66,0-1.32,0-2c5.487-1.868,10.222-2.236,16-2c.743-3.345,1-6.581,1-10c.825,.165,.825,.165,5,1c-5.021,15.462-11.081,37.621-20,51c-.165-.825-.165-.825-1-5c-3.779,1.46-6.035,2.233-10,1c9.8-5.516,12.688-8.007,16-19Z" fill="#050B19"/>
<path d="M81,82c1.155-.165,1.155-.165,7-1c0,1.32,0,2.64,0,4c-3.667,0-7.333,0-11,0c1.272-15.936,7.941-31.373,16-45c-2.751-3.102-8.267-8.733-4-13c2.029,2.818,8.019,8.048,8.848,11.002C98.185,39.201,83.679,73.402,81,82Z" fill="#2E1717"/>
<path d="M117,205c4.756,6.985,7.763,14.961-1,20c-4.81-9.62,4.164-15.581-12-19c10.957-11.455,31.704-.408,24,15c-1.32,0-2.64,0-4,0c-.443-6.005,.699-15.23-7-16Zm-5,20c2.64,.33,5.28,.66,8,1c0,.33,0,.66,0,1c-3.589,.156-5.319,.681-8-2Z" fill="#636363"/>
<path d="M172,43c1.65-.66,3.3-1.32,5-2c.33-2.64,.66-5.28,1-8c.66,0,1.32,0,2,0c-.62,10.643,2.698,12.522,5.256,21.678C189.374,69.424,183.812,85.458,171,94c-3.882-2.75-3.242-5.728-3-10c.33,0,.66,0,1,0c.33,1.65,.66,3.3,1,5c15.212-9.996,15.408-34.578,2-46Z" fill="#24201E"/>
<path d="M202,117c7.826-2.677,5.203-5.474,15-5c-3,2-3,2-5,2c0,1.32,0,2.64,0,4c2.842-1.57,6.488-6,9-6c-2.07,7.608-4.858,14.773-8,22c-3.384-1.128-3.434-1.491-4-5c.99-.33,1.98-.66,3-1c-1.025-9.484-9.377-8.981-17-10c0,.66,0,1.32,0,2c-3.693,1.026-5.668,1.098-9-1c1.23-7.583,2.754-8.403,10-8c0,.66,0,1.32,0,2c-3.107,1.036-2.965,.894-4,4c3.609-1.203,4.755-1.264,6-5c2.64,0,5.28,0,8,0c-1.32,1.65-2.64,3.3-4,5Z" fill="#D9ABAA"/>
<path d="M109,207c-9.348,.664-18.621,1.16-28,1c.477-3.656,.427-8,5-8c.33-.66,.66-1.32,1-2c10.474,10.422,7.887,6.054,18.891,1.598c3.791-1.535,9.021-1.304,13.109-1.598c1.333-3.333,2.667-6.667,4-10c.99,0,1.98,0,3,0c.348,4.877-.583,7.771-3,12c3.61,1.504,7.543,2.271,11,4c-2.422,2.422-21.689-3.534-29,1c1.32,.66,2.64,1.32,4,2Z" fill="#2E0404"/>
<path d="M181,148c0-5,0-10,0-15c-.99,.33-1.98,.66-3,1c2.252,2.252,2.534,3.948,.761,6.861c-5.66,9.299-19.474-10.781-3.364-13.634c13.262-2.35,15.96,15.594,5.603,20.773Z" fill="#D6AFAE"/>
<path d="M152,203c3.898,6.091,6.584,10.951,1,17c-.99-.33-1.98-.66-3-1c-.948-10.751,.466-13.031-11-15c5.939-6.23,20.383-7.919,24,2c.858,2.352,.088,7.399,0,10c-.66,.33-.66,.33-4,2c-.383-6.057-.469-12.823-7-15Z" fill="#626362"/>
<path d="M137,179c1.749-8.933,21.442-64.442,26-69c.99,.33,1.98,.66,3,1c-8.994,22.541-17.638,45.217-26,68c-.99,0-1.98,0-3,0Z" fill="#E4DFD9"/>
<path d="M186,148c6.816-6.816,4.808-19.411,3-28c1.32,.33,2.64,.66,4,1c-.33,.66-.66,1.32-1,2c.99,0,1.98,0,3,0c0-.66,0-1.32,0-2c13.862,3.081,10.919,16-2,16c-.667,3.333-1.333,6.667-2,10c-1.65,.33-3.3,.66-5,1Z" fill="#E5ABAC"/>
<path d="M59,143c-.66-.99-1.32-1.98-2-3c-.33,.165-.33,.165-2,1c-.448-11.339,.291-48.403,16-48c-9.386,17.77-11.545,30.059-12,50Z" fill="#230100"/>
<path d="M157,197c-1.65,0-3.3,0-5,0c0-.99,0-1.98,0-3c-4.268,1.961-8.376,3.992-13,5c2.162-3.351,2.981-4.446,7-5c.33-1.65,.66-3.3,1-5c-6.339,.765-14-.996-14-9c8.173,8.083,19.39,3.39,23,7c.33-.66,.66-1.32,1-2c12.36-.173,24.658,.364,37,1c0,.33,0,.66,0,1c-11.394,.07-23.812,1.153-35-1c-1.228,3.4-2.706,6.184-5,9c.99,.66,1.98,1.32,3,2Z" fill="#CD322D"/>
<path d="M140,203c5.603,1.528,15.128,7.693,10,15c-2.581,3.678-14.051,3.079-18,3c0-.66,0-1.32,0-2c5.075-1.263,9.728-2.27,15-2c-2.115-9.876-3.225-9.055-13-10c.66-1.32,1.32-2.64,2-4c.66,0,1.32,0,2,0c.488-5.574,8.937-9,14-9c0,.99,0,1.98,0,3c1.65,0,3.3,0,5,0c0,.66,0,1.32,0,2c-6.047,.353-11.53,1.265-17,4Z" fill="#0B0603"/>
<path d="M56,264c.33,1.32,.66,2.64,1,4c.66,0,1.32,0,2,0c0,5,0,10,0,15c4.7-2.82,6.683-4.736,10-9c.99,.33,1.98,.66,3,1c0-.99,0-1.98,0-3c.66,0,1.32,0,2,0c1.325-3.568,2.974-6.777,5-10c.66,.66,1.32,1.32,2,2c-.357,.602-.714,1.205-1.081,1.825c-.935,1.577-16.581,30.999-23.522,19.217c-3.032-5.147-1.738-15.4-.397-21.042Z" fill="#301918"/>
<path d="M190,169c.66,1.32,1.32,2.64,2,4c.66,0,1.32,0,2,0c1.284,4.494,.905,5.237-1,10c-17.333,0-34.667,0-52,0c.33-.66,.66-1.32,1-2c12.333,0,24.667,0,37,0c-.165-.825-.165-.825-1-5c5.92-.455,9.207-1.414,12-7Z" fill="#D6A7A6"/>
<path d="M181,212c2.912-2.426,3-3.238,3-7c-.66,0-1.32,0-2,0c0-.66,0-1.32,0-2c7.837-.896,14.386-1.194,22,1c0,2.31,0,4.62,0,7c-7.816-.153-15.197,1.153-23,1Z" fill="#8F6D4C"/>
<path d="M125,124c-2.862,1.227-13.175,4.695-16,3c-3.797-2.278-4.735-25.78-6-31c-.99,0-1.98,0-3,0c3.419,9.574,2.428,20.056,5,30c-1.98-.33-3.96-.66-6-1c.068-4.551-2.96-27.754-1.555-29.472c.837-1.024,5.29-.555,6.555-.528c4.062,9.522,1.891,21.781,6,30c5.396,.251,9.943-2.526,15-1Z" fill="#BA3F39"/>
<path d="M125,123c2.068-2.068,2.07-2,5-2c-6.169-10.795-13.279-8.497-13-23c.99,0,1.98,0,3,0c0-.99,0-1.98,0-3c5.608-.529,7.613-.615,10,5c-.99,0-1.98,0-3,0c.66,1.32,1.32,2.64,2,4c-2.052,2.248-3.007,3.002-6,4c2.847,3.324,10,9.835,10,14c-1.32,.165-1.32,.165-8,1Z" fill="#C03E38"/>
<path d="M126,188c-.99,0-1.98,0-3,0c-3.454,15.048-4.991,8.426-16.448,12.618c-3.015,1.103-5.246,4.52-7.552,5.382c-9.067,3.391-24-22.73-24-30c3.667,1.333,7.333,2.667,11,4c-4,1-4,1-7,0c1.543,4.721,3.078,9.417,5,14c4.64,0,6.568,7.979,12.438,9c1.682,.293,11.128-8.172,20.562-8c1.12-3.361,3.447-4.562,5-8c1.32,.33,2.64,.66,4,1Z" fill="#A9403D"/>
<path d="M128,184c6.948,2.023,11.881,4.209,19,5c-.33,1.32-.66,2.64-1,4c-1.65,0-3.3,0-5,0c-.33,.99-.66,1.98-1,3c-3.018,.464-4.569,.137-6,3c-.99-.165-.99-.165-6-1c0-4.667,0-9.333,0-14Z" fill="#D72F29"/>
<path d="M102,223c.33,1.32,.66,2.64,1,4c-.66,0-1.32,0-2,0c-.33-1.32-.66-2.64-1-4c4.177-1.591,7.532-2.213,12-2c-1.382-14.278-10.025-10.58-22-11c0-.66,0-1.32,0-2c12.436-4.145,34.341-1.683,25,17c-4.333-.667-8.667-1.333-13-2Z" fill="#0B0706"/>
<path d="M100,222c.749-2.994,1.411-5.97,2-9c-6.459,.086-12.614,.232-19-1c0-.33,0-.66,0-1c4.896-.659,24.544-3.21,27.961,.254c1.977,2.005,1.163,7.226,1.039,9.746c-2,.167-2,.167-12,1Z" fill="#806246"/>
<path d="M202,117c.66-1.32,1.32-2.64,2-4c-1.65-.33-3.3-.66-5-1c0-.33,0-.66,0-1c2.64,0,5.28,0,8,0c0-.66,0-1.32,0-2c-2.31,0-4.62,0-7,0c-.152-7.156-.356-7.157,7-7c.33,.99,.66,1.98,1,3c5.826-5.179,11.589-4.183,13,4c-.66,0-1.32,0-2,0c0-.99,0-1.98,0-3c-.66,0-1.32,0-2,0c0,.99,0,1.98,0,3c-2.31,.33-4.62,.66-7,1c-1.888,5.124-2.191,7-8,7Z" fill="#2E2726"/>
<path d="M58,264c-.66-.66-1.32-1.32-2-2c-6.222,6.222-11.354,.266-11.354-6.753c0-7.438,3.56-15.451,6.354-22.247c.99,.33,1.98,.66,3,1c-.943,8.86-4.438,15.793-4,25c2.97,0,5.94,0,9,0c-.33,1.65-.66,3.3-1,5Z" fill="#09111C"/>
<path d="M91,227c2.192,4.385-6.125,23.551-8,29c-.66,0-1.32,0-2,0c0,2.31,0,4.62,0,7c-4.585,1.528-5.123,4.816-7,9c-.66,0-1.32,0-2,0c0,.99,0,1.98,0,3c-.66,0-1.32,0-2,0c5.944-15.609,12.297-29.788,17-46c.33,.66,.66,1.32,1,2c.66,0,1.32,0,2,0c.33-1.32,.66-2.64,1-4Z" fill="#2D0202"/>
<path d="M216,134c2.924,1.949,3.519,2.437,3.308,6.126c-.476,8.313-12.35,6.976-18.308,6.874c-.33-1.32-.66-2.64-1-4c3.49-2.375,14.732-6.464,16-9Z" fill="#3B6795"/>
<path d="M102,26c-4.822-4.822-4.105-6.514-4-13c21.128,10.564,37.355-.968,60,6c-10.228,3.111-48.742,2.681-58-2c.66,2.97,1.32,5.94,2,9Z" fill="#AC3B35"/>
<path d="M214,113c-1.65-.33-3.3-.66-5-1c.33-.99,.66-1.98,1-3c2.31,0,4.62,0,7,0c0-.99,0-1.98,0-3c.66,0,1.32,0,2,0c0,.99,0,1.98,0,3c1.65,0,3.3,0,5,0c2.83,8.378-5,14.823-5,23c-.66,0-1.32,0-2,0c0-.99,0-1.98,0-3c-.66,0-1.32,0-2,0c1.662-5.857,3.47-11.459,6-17c-.66,0-1.32,0-2,0c-1.797,3.851-2.429,6-7,6c0-1.32,0-2.64,0-4c.66-.33,1.32-.66,2-1Z" fill="#2E1C1B"/>
<path d="M67,209c2.433-6.481,4.808-12.84,8-19c9.922,0,3.599,14.202,2,19c-3.3,0-6.6,0-10,0Z" fill="#3F73A7"/>
<path d="M56,142c4.821,4.821,5.754,13.242,9.234,19.122C68.299,166.301,73.357,168.977,75,175c-.99,0-1.98,0-3,0c0,.99,0,1.98,0,3c.66,.33,1.32,.66,2,1c-.66,.66-1.32,1.32-2,2c-5.006-16.492-16.35-18.266-16-39Z" fill="#2D261C"/>
<path d="M31,231c-6,.333-12,.667-18,1c-1.25-4.999-1.079-9.896-1-15c11.746-1.155,23.206-2.514,35-1c-5.193,5.193-24.867,3.653-32,3c0,3.667,0,7.333,0,11c6.078-.707,10.312-1.844,16,1Z" fill="#83674E"/>
<path d="M116,131c-18.724,1.08-13.844-22.063-16-35c.99,0,1.98,0,3,0c3.646,9.744,1.746,21.03,6,30c3.3,0,6.6,0,10,0c-1.487,2.975-3.891,2.603-7,3c1.32,.66,2.64,1.32,4,2Z" fill="#480807"/>
<path d="M133,218c-.333-3.333-.667-6.667-1-10c8.821-2.94,15.975-1.73,15,9c-4.763,.953-9.167,1.083-14,1Z" fill="#886545"/>
<path d="M213,198c.477-2.204,.358-6.193,1-8c.306-.863,16.964-12.927,18-13c.552-.039,2.389,.796,3,1c0,8.47-17.065,10.804-14,20c-.99,.66-1.98,1.32-3,2c0-1.32,0-2.64,0-4c-1.65,.66-3.3,1.32-5,2Z" fill="#80654D"/>
<path d="M176,152c-2.363-2.526-3.665-3.888-7-5c0-.66,0-1.32,0-2c3.912,1.156,6.875,2.355,10,5c.66-.66,1.32-1.32,2-2c0,.99,0,1.98,0,3c2.64,.33,5.28,.66,8,1c0,.66,0,1.32,0,2c-3.684,.549-7.302,1.293-10.502,3.299C157.726,170.322,195.773,186.319,187,160c3.486,0,4.311,3.696,4.175,6.815c-.743,17.026-28.413,9.182-19.194-6.144c1.305-2.17,3.2-3.939,5.019-5.671c-3.508-1.604-6.144-2.22-10-2c.33-.66,.66-1.32,1-2c2.64,.33,5.28,.66,8,1Z" fill="#4A2323"/>
<path d="M159,218c4.868-1.472,9.972-1.078,15-1c0,.33,0,.66,0,1c-8.041,.67-13.579,5.97-21.378,5.887c-3.587-.038-7.706-2.353-11.622-2.887c0-.33,0-.66,0-1c4.475-1.071,8.363-2,13-2c3.506-7.013-2-9.314-2-15c7.976,.825,7.36,8.88,7,15Z" fill="#0E0F0E"/>
<path d="M174,45c-4.572,1.016-8.446,1.337-10,6c.66,0,1.32,0,2,0c0,.99,0,1.98,0,3c-18.517-3.339-5.922,11-15,11c-3.907-10.604,13.381-29.619,23-20Z" fill="#E6C4A0"/>
<path d="M68,230c-3.3,0-6.6,0-10,0c0-.33,0-.66,0-1c3.667,0,7.333,0,11,0c.699,9.32-6.465,30.083-9,40c-.99-.33-1.98-.66-3-1c.33-2.64,.66-5.28,1-8c-1.32-.66-2.64-1.32-4-2c7.311-7.52,10.191-18.408,14-28Z" fill="#090D1B"/>
<path d="M85,239c-1-4-.807-6.055,0-10c-3.667,.667-7.333,1.333-11,2c-3.377,9.745-20.096,43.269-10,50c-2.068,2.068-2.07,2-5,2c-.61-10.838,5.58-50.309,16-55c3.32-1.495,9.362-1,13-1c-1,4-2,8-3,12Z" fill="#A63F3B"/>
<path d="M212,134c-.99-.165-.99-.165-6-1c-.33-2.31-.66-4.62-1-7c-.66,0-1.32,0-2,0c-1.551-3.102-4.847-3.739-8-5c0,.66,0,1.32,0,2c-.99,0-1.98,0-3,0c.33-.99,.66-1.98,1-3c.66,0,1.32,0,2,0c0-.66,0-1.32,0-2c8.171-.43,20.344,1.055,17,12c-.66,0-1.32,0-2,0c0,.99,0,1.98,0,3c.66,.33,1.32,.66,2,1Z" fill="#EDAFAE"/>
<path d="M112,58c-2.634-4.65-1.34-21,5-21c0-1.65,0-3.3,0-5c4.476-1.573,7.323-5.134,11.713-6.204C135.295,24.192,156.427,25.72,153,36c-19.419-17.838-40.457-1.217-41,22Z" fill="#BD463C"/>
<path d="M159,113c-3.119-4.679-5-11.394-5-17c-.66,0-1.32,0-2,0c-.33-2.64-.66-5.28-1-8c2.64,0,5.28,0,8,0c0,.33,0,.66,0,1c-1.98,0-3.96,0-6,0c2.558,6.03,13,10.691,13,16c-4.016,2.22-5.668,3.519-7,8Z" fill="#2A1413"/>
<path d="M177,217c8.671-8.026,42.307-2.286,53,1c-.678,.828-2.039,2.57-3,3c-2.846,1.275-11.862-1.509-15.048-2.178C200.448,216.409,188.68,216.73,177,217Z" fill="#3A3635"/>
<path d="M217,149c1.293,11.961-19.207,9.575-20,5c-1.073-6.193,16.287-5,20-5Z" fill="#416D98"/>
<path d="M110,130c5.565-5.565,20.507-2.014,24-9c3.3,0,6.6,0,10,0c.33-.99,.66-1.98,1-3c2.497,1.249,2.097,1.29,3,4c2.64,0,5.28,0,8,0c.33-2.97,.66-5.94,1-9c1.32,0,2.64,0,4,0c-.546,4.587-1.87,7.924-4,12c-8.038-.361-16.19-.625-24.139,.859c-8.126,1.516-14.28,4.907-22.861,4.141Z" fill="#0B080F"/>
<path d="M111,154c2.451,7.353-4.996,6.246-10,6c0,1.32,0,2.64,0,4c.66,0,1.32,0,2,0c0,1.65,0,3.3,0,5c-.99,.33-1.98,.66-3,1c0,.66,0,1.32,0,2c-4.504,.697-29.696,3.391-26-4c8.186,2.519,16.941,3.713,25,0c-.399-4.921-1.75-5.82-6-8c0-.33,0-.66,0-1c6.233-.857,12.524-1.654,18-5Z" fill="#3E7091"/>
<path d="M70,138c10.038,12.807,15.979,10.164,17-6c10.888,5.969,10.934-2,16-2c.512,9.735-6.748,7.2-14,7c-.856,11.982-15,16.783-15,8c-1.32,0-2.64,0-4,0c-1.351,5.134-2.962,5.795-8,7c0-.66,0-1.32,0-2c6.344-1.029,6.792-6.677,8-12Z" fill="#FCAE4B"/>
<path d="M88,133c-2.103,12.962-6.821,21.149-17,7c.33-.66,.66-1.32,1-2c12.385,14.449,12.198,3.119,13-9c6.139-.227,9.08,2.257,15,2c0-2.31,0-4.62,0-7c.99,.33,1.98,.66,3,1c-.703,9.31-6.254,13.83-15,8Z" fill="#C8431A"/>
<path d="M86,180c7.333,0,14.667,0,22,0c0-.66,0-1.32,0-2c6.126-1.609,21.171-8.415,26-6c-12.253,7.759-34.174,14.913-48,8Z" fill="#23070D"/>
<path d="M56,140c.33-2.97,.66-5.94,1-9c.33,0,.66,0,1,0c1.245-11.989,3.423-23.665,10-34c1.791,3.583-2.575,9.312-3.799,13.284C59.954,124.066,60.914,137.702,61,152c-1.333-2.667-2.667-5.333-4-8c-.66,1.32-1.32,2.64-2,4c-1.326-5.967-1.088-11.926-1-18c.33,0,.66,0,1,0c.167,1.667,.167,1.667,1,10Z" fill="#974541"/>
<path d="M118,15c13.061-2.648,24.78-3.877,38-1c-.33,1.32-.66,2.64-1,4c-10.109-1.366-28.803,1.867-37-3Z" fill="#392625"/>
<path d="M62,235c-.167,1.833-.167,1.833-1,11c-.66,0-1.32,0-2,0c-.681,6.126-.185,9-7,9c-.95-3.695-.95-6.305,0-10c.66,0,1.32,0,2,0c.33-1.65,.66-3.3,1-5c.66,0,1.32,0,2,0c0-.66,0-1.32,0-2c.66,0,1.32,0,2,0c.33-.99,.66-1.98,1-3c.66,0,1.32,0,2,0Z" fill="#3873AD"/>
<path d="M154,119c-1.98,0-3.96,0-6,0c-.33-.99-.66-1.98-1-3c-.66,0-1.32,0-2,0c-1.915-3.982-3.894-6.696-2-11c1.012,0,5.343-.36,6,0c3.099,1.699,5.231,10.743,5,14Z" fill="#D2302B"/>
<path d="M143,50c-2.333-3.929-3.53-4.483-8-4c-.66,2.31-1.32,4.62-2,7c-18.129-8.772,12.608-25.429,10-3Z" fill="#F2EADE"/>
<path d="M169,162c-.804,4.986-1.732,2.544-4,5c-1.653,1.79-.504,7.439-3.584,7.963C148.996,177.076,153.75,161.576,169,162Z" fill="#4C2725"/>
<path d="M120,110c4.876,3.3,8.103,5.139,10,11c-10.235,3.06-22.64,11.961-22-5c.33,0,.66,0,1,0c0,1.98,0,3.96,0,6c4.867,.187,8.591,.569,13-2c-1.733-3.674-3.349-5.954-2-10Z" fill="#D23B31"/>
<path d="M141,109c-3.789-.354-14-9.345-14-13c5.77-.137,12.02-1.32,17,2c-.33,.99-.66,1.98-1,3c-.66,0-1.32,0-2,0c0,2.64,0,5.28,0,8Z" fill="#D7382E"/>
<path d="M126,188c.66,.33,1.32,.66,2,1c0,2.97,0,5.94,0,9c.99,.165,.99,.165,6,1c.33-.99,.66-1.98,1-3c4.975-.765,6.056-3.239,11-4c0,.99,0,1.98,0,3c-11.623,3.653-9.378,13.173-23,5c1-4,2-8,3-12Z" fill="#CE352F"/>
<path d="M153,69c10.799,6.461,15.946,8.465,15,22c.99,.33,1.98,.66,3,1c-.66,1.32-1.32,2.64-2,4c-.99,0-1.98,0-3,0c0-3.667,0-7.333,0-11c-1.65,0-3.3,0-5,0c.33-1.65,.66-3.3,1-5c-5.241-3.026-9.847-4.097-9-11Z" fill="#15110E"/>
<path d="M222,184c-5.744,6.258-17.594,15.301-26,17c0-7.903,18.218-17.489,26-17Z" fill="#1A130F"/>
<path d="M200,104c.815,2.446,1.176,2.648,0,5c2.31,0,4.62,0,7,0c0,.66,0,1.32,0,2c-11.015,.711-7.142,5.173-15,6c.33-1.32,.66-2.64,1-4c.99,0,1.98,0,3,0c0-.66,0-1.32,0-2c-2.31,0-4.62,0-7,0c-2.142,4.591-2.667,6-8,6c0-.99,0-1.98,0-3c1.65-.33,3.3-.66,5-1c0-5.899,6.286-5.181,11-5c0-.66,0-1.32,0-2c.99,0,1.98,0,3,0c0-.66,0-1.32,0-2Z" fill="#180A0A"/>
<path d="M146,88c5.784,0,6.293,2.579,6,8c.66,0,1.32,0,2,0c1.568,4.549,6.71,23.116,2.393,26.58c-1.34,1.075-6.555,.449-8.393,.42c0-.99,0-1.98,0-3c2.31,.33,4.62,.66,7,1c-.748-11.029-5.499-20.9-6-32c-.99-.33-1.98-.66-3-1Z" fill="#320504"/>
<path d="M118,71c3.378-1.689,7.553,.142,11,1c.649-3.896,4.399-8.691,8-4c1.108,1.444,.921,7.072,1,9c-8.341,.958-13.247-1.173-20-6Z" fill="#F2E9DE"/>
<path d="M143,148c1.244-2.877,2-4.833,2-8c-3.667-.333-7.333-.667-11-1c-.33-1.32-.66-2.64-1-4c.99,0,1.98,0,3,0c0-.66,0-1.32,0-2c4.667-.333,9.333-.667,14-1c0-1.98,0-3.96,0-6c-5-.333-10-.667-15-1c0-.33,0-.66,0-1c5.305-.102,15.301-1.699,19,2c-.99,2.64-1.98,5.28-3,8c-5.333,.667-10.667,1.333-16,2c0,.66,0,1.32,0,2c4.667,0,9.333,0,14,0c-1.423,4.813-1.117,8.372-6,10Z" fill="#3E678F"/>
<path d="M203,118c10.891,.641,14.725-6,18-6c-2.07,7.608-4.858,14.773-8,22c-3.384-1.128-3.434-1.491-4-5c.99-.33,1.98-.66,3-1c-.685-6.34-3.763-7.42-9-10Z" fill="#E7B7B5"/>
<path d="M216,203c3.667,1,7.333,2,11,3c.33,1.32,.66,2.64,1,4c-6.437-.511-11.959-1.729-18-4c0-4.48,2.81-10,8-10c.177,3.363,.503,4.497-2,7Z" fill="#1E1816"/>
<path d="M105,143c2-2,2-2,5-3c-.382-4.843-1.386-5.699-6-7c-.33-2.31-.66-4.62-1-7c3.292,0,8.306,4.62,14,5c-.485,8.399-3.653,11.224-12,12Z" fill="#E5C65F"/>
<path d="M177,140c-12.059-3.015,.429-14.142,4-7c-.99,.33-1.98,.66-3,1c2.058,2.058,2.38,2.569,1.396,5.493c-3.37,10.017-18.62-3.271-7.918-10.537c1.43-.971,2.983-1.581,4.716-1.697c1.946-.129,3.925,.29,5.806,.741c0,.33,0,.66,0,1c-2.53,.473-8.594,.959-10.386,2.414c-3.365,2.73-.939,8.748,5.386,8.586Z" fill="#4C2726"/>
<path d="M206,213c-6.424,3.728-16.735,2.13-24,2c0,.33,0,.66,0,1c-5.596,1.319-11.299,1.082-17,1c3.012-6.024,34.063-5.267,41-4Z" fill="#0B0402"/>
<path d="M102,145c8.131-4.102,14.473-4.355,14-15c1.65,0,3.3,0,5,0c-.333,1.667-.333,1.667-2,10c-6.001,1.5-6.748,7.231-5,13c-.66,.33-1.32,.66-2,1c-1.189-6.69-3.933-7.391-10-9Z" fill="#457188"/>
<path d="M139,83c2.797,2.076,7.806,4.1,10,6c1.959,1.696,7.26,28.709,7,32c-5.03,1.677-9.295,.116-11-5c.66,0,1.32,0,2,0c1.487,2.975,3.891,2.603,7,3c-2.108-7.833-3.372-18.341-6.474-25.542C145.442,88.621,140.725,89.211,139,83Z" fill="#A73E3B"/>
<path d="M147,196c2.556-3.033,6.147-8.495,9.477-10.378c6.158-3.482,29.566-.032,37.523,.378c0,.33,0,.66,0,1c-11.394,.07-23.812,1.153-35-1c-1.228,3.4-2.706,6.184-5,9c.99,.66,1.98,1.32,3,2c-1.65,0-3.3,0-5,0c0-.99,0-1.98,0-3c-1.65,.66-3.3,1.32-5,2Z" fill="#716362"/>
<path d="M81,86c-4.589,3.269-8.231,6.19-14,7c4.36-11.772,9.514-2.275,8-23c.99,0,1.98,0,3,0c0,.66,0,1.32,0,2c.66,.33,1.32,.66,2,1c-1,4-2,8-3,12c1.32,.33,2.64,.66,4,1Z" fill="#321818"/>
<path d="M117,70c-8.977-13.031-6.456-30.03,7-39c.66,.33,1.32,.66,2,1c-1.877,2.815-1.606,3-5,3c0,.66,0,1.32,0,2c-.66,0-1.32,0-2,0c-.787,3.711-1.293,7.587-3,11c-.66,0-1.32,0-2,0c.561,5.184,4.184,18.447,3,22Z" fill="#FBD8CD"/>
<path d="M172,43c1.65-.66,3.3-1.32,5-2c.33-2.64,.66-5.28,1-8c.66,0,1.32,0,2,0c-.197,3.38-1.09,9.294,.348,12.278c1.216,2.523,2.974,4.16,3.55,7.071c.912,4.608-.415,10.936-.898,15.651c-.33,0-.66,0-1,0c-.181-9.727-2.298-18.439-10-25Z" fill="#2F2921"/>
<path d="M145,82c-.99,0-1.98,0-3,0c-3.59-7.18,.777-12.457,5-18c3.133,3.133,4.394,5.817,3,10c-.66,0-1.32,0-2,0c-1.113,3.34-2.435,4.601-5,7c.66,.33,1.32,.66,2,1Z" fill="#434240"/>
<path d="M155,45c-.33-2.97-.66-5.94-1-9c.66,0,1.32,0,2,0c.33,.99,.66,1.98,1,3c5.667,0,11.333,0,17,0c-1.73-11.59-5.734-13.221-16-18c0-.33,0-.66,0-1c12.195,.61,18.909,10.639,18,22c-7.268-2.423-14.714-1.47-21,3Z" fill="#AB4640"/>
<path d="M48,213c-4.333-.333-8.667-.667-13-1c0-.33,0-.66,0-1c14.314-.17,28.584,1.532,43,2c0,.33,0,.66,0,1c-25.764,2.388-25.764,2.388-38,2c2.75-1.473,4.896-2.224,8-3Z" fill="#896D53"/>
<path d="M164,165c5.372,5.372,8.821,2.462,12,12c-11.753,1.927-12.212-.992-12-12Z" fill="#EBACAB"/>
<path d="M143,121c-6.849,.845-16.323-7.03-14-14c4.628,.443,14,9.427,14,14Z" fill="#E6B478"/>
<path d="M90,85c-1.912,3.823-15.256,5.762-21,18c-.66,0-1.32,0-2,0c3.624-12.603,9.191-19.127,23-18Z" fill="#D03D34"/>
<path d="M159,218c-.285-6.411-1.197-13.732-8-16c0-.66,0-1.32,0-2c11.56-1.344,12.144,7.174,12,16c-.66,.33-.66,.33-4,2Z" fill="#6A6A68"/>
<path d="M81,82c1.155-.165,1.155-.165,7-1c0,1.32,0,2.64,0,4c-3.667,0-7.333,0-11,0c.517-5.605,1.29-10.641,3-16c.99,0,1.98,0,3,0c-.394,4.466-.573,8.719-2,13Z" fill="#1B0202"/>
<path d="M121,35c.99,0,1.98,0,3,0c2.234-7.697,16.08-5.96,22-3c-.33,.66-.66,1.32-1,2c-5.581-.066-11.657-.781-17,1c0,.66,0,1.32,0,2c-4.75,1.125-4.75,1.125-7,0c0-.66,0-1.32,0-2Z" fill="#F4EBDE"/>
<path d="M91,232c.33-1.98,.66-3.96,1-6c2.64,0,5.28,0,8,0c-1.243,10.926-4.391,26.716-12,35c.409-3.542,.735-11,5-11c.781-7.55,3.217-14.435,4-22c-1.32,0-2.64,0-4,0c-.66,1.32-1.32,2.64-2,4Z" fill="#AE403B"/>
<path d="M126,31c8.412-8.412,31.388-1.134,29,12c-5.579-1.86-2.421-6.14-8-8c0-1.32,0-2.64,0-4c-7,0-14,0-21,0Z" fill="#FBDAD0"/>
<path d="M157,161c.12,4.685-1.461,9.152-2,14c-.66,0-1.32,0-2,0c-.558-6.327-4.889-20,5-20c0,.66,0,1.32,0,2c.66,0,1.32,0,2,0c0,1.65,0,3.3,0,5c-.99-.33-1.98-.66-3-1Z" fill="#EEAFAE"/>
<path d="M186,148c5.219-5.219,5.201-13.124,4-20c.66,0,1.32,0,2,0c.66,2.31,1.32,4.62,2,7c6.075-.959,7.326-1.81,7-8c-1.65-.33-3.3-.66-5-1c-.33,1.98-.66,3.96-1,6c-.33,0-.66,0-1,0c2.231-20.454,21.371,5-1,5c-.667,3.333-1.333,6.667-2,10c-1.65,.33-3.3,.66-5,1Z" fill="#4E2828"/>
<path d="M144,36c-.33,.99-.66,1.98-1,3c-13.45-8.966-17.81,2.548-17,14c-.99,0-1.98,0-3,0c-.198-4.66-1.878-16,5-16c0-6.001,10.134-4.289,14-3c0,.66,0,1.32,0,2c.66,0,1.32,0,2,0Z" fill="#F9E4CB"/>
<path d="M165,86c-.33,.99-.66,1.98-1,3c-1.32,0-2.64,0-4,0c-1.479-4.167-2.765-4.554-7-5c.33-.66,.66-1.32,1-2c.66,0,1.32,0,2,0c-.66-2.31-1.32-4.62-2-7c3.775,1.091,6.47,1.908,9,5c-.66,1.65-1.32,3.3-2,5c1.65,0,3.3,0,5,0c0,3.3,0,6.6,0,10c-.33,0-.66,0-1,0c0-2.97,0-5.94,0-9Z" fill="#585956"/>
<path d="M133,180c-.165-.66-.165-.66-1-4c-8.781,4.374-37.264,12.736-45,5c10.232,.164,20.633,.93,30.567-2.022C122.627,177.474,131.79,171,136,171c-.99,2.97-1.98,5.94-3,9Z" fill="#A6413D"/>
<path d="M119,130c9.678-6.452,20.863-5.309,32-5c-.33,2.31-.66,4.62-1,7c-2.31,0-4.62,0-7,0c0-.33,0-.66,0-1c1.98,0,3.96,0,6,0c0-1.32,0-2.64,0-4c-9.991,.877-20.362,3.153-30,3Z" fill="#3D73A7"/>
<path d="M130,100c-.99,0-1.98,0-3,0c.66,1.32,1.32,2.64,2,4c-1.634,2.064-3.544,3.686-6.368,3.251c-8.022-1.234-.395-18.896,7.368-7.251Z" fill="#350808"/>
<path d="M219,196c1.912-5.031,12.587-16,18-16c0,.66,0,1.32,0,2c-.99,0-1.98,0-3,0c-.407,5.794-9.382,15.873-15,14Z" fill="#221E1B"/>
<path d="M61,150c2.59,2.59,2.801,6.401,6,8c0,.99,0,1.98,0,3c3.7,0,1.54,.878,4,3c1.72,1.483,20.594,3.815,24,4c0,.33,0,.66,0,1c-15.655,.577-34,2.931-34-19Z" fill="#EAC24D"/>
<path d="M77,190c-.66,0-1.32,0-2,0c-1.925,6.169-4.272,12.142-7,18c-1.32-.33-2.64-.66-4-1c2.162-6.94,4.894-13.431,8-20c1.295,2.589,2.283,2.474,5,3Z" fill="#1C222D"/>
<path d="M59,143c-.66-.99-1.32-1.98-2-3c-.66,.33-1.32,.66-2,1c-.073-8.238-.687-16.897,1-25c4.325,8.651,3.079,17.595,3,27Z" fill="#3E1A19"/>
<path d="M115,226c10.937-8.476,2-12.316,2-21c8.305,.859,7.703,11.573,8,18c-1.65,.66-3.3,1.32-5,2c0,.33,0,.66,0,1c-1.65,0-3.3,0-5,0Z" fill="#020303"/>
<path d="M200,167c-8.432,.444-9.129-5.807-5-12c3.513,.567,3.872,.615,5,4c-.99,.33-1.98,.66-3,1c1.312,6.781,7.124,5.49,13,6c0,.66,0,1.32,0,2c-1.65,0-3.3,0-5,0c0,.33,0,.66,0,1c-1.65,0-3.3,0-5,0c0-.66,0-1.32,0-2Z" fill="#080812"/>
<path d="M130,100c5.547,5.466,10.759,11.245,16,17c-.99,1.32-1.98,2.64-3,4c-4.167-5.164-8.21-10.386-13-15c.66,0,1.32,0,2,0c-.66-1.98-1.32-3.96-2-6Z" fill="#2E0906"/>
<path d="M182,111c-1.32,0-2.64,0-4,0c-.436,4.356-2.072,4.791-6,6c.526-2.72,.41-3.705,3-5c-2.31-.33-4.62-.66-7-1c0-.33,0-.66,0-1c2.64,0,5.28,0,8,0c0-.66,0-1.32,0-2c-1.98,0-3.96,0-6,0c.33-.99,.66-1.98,1-3c1.32,0,2.64,0,4,0c0-.66,0-1.32,0-2c-1.32-.66-2.64-1.32-4-2c4.073-.322,4.669-.497,7,3c-2.278,4.556-.092,5.977,4,7Z" fill="#291917"/>
<path d="M196,167c1.32,0,2.64,0,4,0c0,.66,0,1.32,0,2c4.464-1.826,5.633-2.184,10,0c-1.485,.165-1.485,.165-9,1c-.558,5.445-2.664,10.11-5,15c-.33,0-.66,0-1,0c-1.728-6.624,.15-10.922,3-17c-.66-.33-1.32-.66-2-1Z" fill="#413B3B"/>
<path d="M70,234c.33-2.31,.66-4.62,1-7c-5.642,1.329-11.25,1.083-17,1c0-.33,0-.66,0-1c9.729-1.399,19.142-2.304,29-2c.33,.99,.66,1.98,1,3c-7.38,.449-8.746,.746-14,6Z" fill="#27100A"/>
<path d="M172,186c3.647-5.471,14.628-3.177,21-3c.33-.99,.66-1.98,1-3c.33,0,.66,0,1,0c0,1.98,0,3.96,0,6c-7.667,0-15.333,0-23,0Z" fill="#20110F"/>
<path d="M192,159c-8.846-.549-14.819-1.633-16,9c-.33,0-.66,0-1,0c-2.824-11.899,4.299-14.173,15-14c.66,1.65,1.32,3.3,2,5Z" fill="#EBB8B7"/>
<path d="M151,91c-.33-.99-.66-1.98-1-3c-9.77,1.098-15.032-16-9-16c1.663,13.232,5.971,15.158,19,12c.33,.99,.66,1.98,1,3c-3.251,3.251-7.7-.599-10,4Z" fill="#0F0504"/>
<path d="M94,30c1.327,2.291,3.972,4.87,5,7c2.422,5.019-7.266,17.797-9,23c-.66,0-1.32,0-2,0c1.438-5.221,9.039-16.103,8.905-20.058C96.745,35.205,91,33.466,91,28c3.667,.333,7.333,.667,11,1c0,.33,0,.66,0,1c-2.64,0-5.28,0-8,0Z" fill="#AD3F3A"/>
<path d="M145,215c-.815-2.446-.648-2.824-3-4c0-.66,0-1.32,0-2c-3.333,.333-6.667,.667-10,1c0-.66,0-1.32,0-2c9.621-3.207,15-1.622,15,9c-2.167,.167-2.167,.167-13,1c0-.66,0-1.32,0-2c3.674-1.176,7.169-1.074,11-1Z" fill="#7A634E"/>
<path d="M184,166c-.99,.33-1.98,.66-3,1c0-.99,0-1.98,0-3c1.32,0,2.64,0,4,0c.299,11.677-10.185,5.544-7-2c2.093-4.958,11.469-3.557,11,7c-.66,0-1.32,0-2,0c-.66-1.98-1.32-3.96-2-6c-1.32,0-2.64,0-4,0c-.33,1.65-.66,3.3-1,5c1.32,0,2.64,0,4,0c0-.66,0-1.32,0-2Z" fill="#E0BBBA"/>
<path d="M171,162c0-1.32,0-2.64,0-4c-9.168-.865-12.716-3.568-8-13c.66,.33,1.32,.66,2,1c-1.356,2.712-1.065,5.008-1,8c3.75,1.125,3.75,1.125,6,0c-.33-.66-.66-1.32-1-2c3.333,.667,6.667,1.333,10,2c-2.667,2.667-5.333,5.333-8,8Z" fill="#996F6F"/>
<path d="M145,87c-16.42-6.794-2.309-20.663,2-30c1.419,2.504,2.354,3.292,1,6c-.66,0-1.32,0-2,0c-.318,2.782-2.648,10-6,10c-.608,6.384,2.386,8.771,5,14Z" fill="#1E110F"/>
<path d="M69,166c10.128,.979,18.639,2.094,29,2c-.526-2.72-.41-3.705-3-5c0-.66,0-1.32,0-2c.825,.495,.825,.495,5,3c-.92,11.649-18.756,7.343-26,4c0,.66,0,1.32,0,2c-3.875-1.75-3.875-1.75-5-4Z" fill="#C2BC7E"/>
<path d="M211,161c-3.136,6.945-9.86,6.934-15,2c.33-1.32,.66-2.64,1-4c4.551,1.517,9.24,1.62,14,2Z" fill="#42648A"/>
<path d="M182,129c8.403,3.795,6.315,15.342-1,19c0-5,0-10,0-15c.495,.33,.495,.33,3,2c-.506-2.169-1-4-2-6Z" fill="#7A5050"/>
<path d="M235,220c6.425-4.283,10.943-4.228,18-2c-.33,1.32-.66,2.64-1,4c-5.913,.257-11.239-.702-17-2Z" fill="#7C644F"/>
<path d="M69,203c.33,1.32,.66,2.64,1,4c1.98,0,3.96,0,6,0c1.452-4.537,2.235-8.181,2-13c-3.272,1.091-3.724,1.958-5,5c-1.296-3.887,.121-5.618,2-9c9.922,0,3.599,14.202,2,19c-3.3,0-6.6,0-10,0c.66-1.98,1.32-3.96,2-6Z" fill="#476A8F"/>
<path d="M176,152c-2.363-2.526-3.665-3.888-7-5c0-.66,0-1.32,0-2c3.912,1.156,6.875,2.355,10,5c.66-.66,1.32-1.32,2-2c0,.99,0,1.98,0,3c2.64,.33,5.28,.66,8,1c0,.66,0,1.32,0,2c-6.953,.073-15.63,1.185-22-2c1.822-1.822,6.45-.364,9,0Z" fill="#654140"/>
<path d="M248,222c-4.434,4.434-15.341,1.323-21,0c.33-.99,.66-1.98,1-3c6.945-.485,13.299,1.307,20,3Z" fill="#1A1614"/>
<path d="M116,182c-7.087,5.937-14.606,6.862-23,2c2.647-2.647,18.854-2.058,23-2Z" fill="#D03E34"/>
<path d="M219,132c8.626,5.699,2.824,13.758,2,22c-.33,0-.66,0-1,0c0-2.97,0-5.94,0-9c-.99-.33-1.98-.66-3-1c2.03-2.03,1.76-8.905,2-12Z" fill="#292A30"/>
<path d="M45,251c1.746,3.216,2.204,5.32,2,9c4.018-.974,7.882-1.081,12-1c-.33,1.65-.66,3.3-1,5c-.66-.66-1.32-1.32-2-2c-9.148,9.148-11.377-4.459-11-11Z" fill="#34363A"/>
<path d="M52,241c1.458,4.623,.582,9.309,0,14c3.035-2.023,3.535-2.195,7-1c-3.463,3.273-5.152,6.616-10,5c-.32-6.717,.521-11.757,3-18Z" fill="#3F6993"/>
<path d="M126,188c-.99,0-1.98,0-3,0c-.936,4.078-1.639,7.458-4,11c-3.667-.333-7.333-.667-11-1c2.689-4.034,4.462-3.252,9-3c1.148-3.443,3.422-4.507,5-8c1.32,.33,2.64,.66,4,1Z" fill="#C54138"/>
<path d="M139,180c-.66-.33-1.32-.66-2-1c3.12-16.12,3.12-16.12,7-20c.66,.33,1.32,.66,2,1c-1.729,7.009-3.84,13.503-7,20Z" fill="#E6E3DC"/>
<path d="M112,139c-2.558,2.558-6.005,4.004-9,6c4.38,2.555,6,2.684,6,8c-1.32,0-2.64,0-4,0c0,.66,0,1.32,0,2c-.99-.33-1.98-.66-3-1c0-.66,0-1.32,0-2c1.65-.33,3.3-.66,5-1c0-.66,0-1.32,0-2c-.99-.165-.99-.165-6-1c-1.096-7.672,4.072-11.094,11-9Z" fill="#EFBE3B"/>
<path d="M64,280c2.392-4.613,8.374-12.619,9-17c.66,0,1.32,0,2,0c1.254-5.822,3.832-11.464,6-17c2.866,8.599-10.154,29.003-17,34Z" fill="#AD413C"/>
<path d="M91,258c.808,7.115-2.612,10.844-10,10c-1.532-4.084-.631-7.795,0-12c.66,.33,1.32,.66,2,1c0,1.98,0,3.96,0,6c3.796-.542,5.472-2.201,8-5Z" fill="#270606"/>
<path d="M167,23c11.792,.68,16.093,15.453,9,19c-.366-8.229-2.994-13.423-9-19Z" fill="#2D0F0F"/>
<path d="M46,229c0,.99,0,1.98,0,3c-7.558,1.86-18.455,1.857-26,0c0-.33,0-.66,0-1c8.58-.905,17.364-2.23,26-2Z" fill="#1A120C"/>
<path d="M211,161c-4.408,.133-9.674,1.326-13-2c.33-.99,.66-1.98,1-3c4,.333,8,.667,12,1c0,.33,0,.66,0,1c-3.3,0-6.6,0-10,0c0,.66,0,1.32,0,2c4.79,.073,9.395,.535,14-1c.519,4.669-.481,6.031-4,9c-1.177-2.355-1.552-2.184-4-3c1.32-1.32,2.64-2.64,4-4Z" fill="#172231"/>
<path d="M106,16c8.667,0,17.333,0,26,0c0,.33,0,.66,0,1c-6.822,1.761-21.763,5.355-26-1Z" fill="#250403"/>
<path d="M88,262c-2.435,2.435-2.878,2.041-6,1c.779-9.774,3.918-18.774,7-28c.66,.33,1.32,.66,2,1c-2.568,8.268-4.801,16.628-7,25c1.32,.33,2.64,.66,4,1Z" fill="#A33C38"/>
<path d="M50,214c-9.271,1.822-19.707,1.527-29,0c0-.33,0-.66,0-1c6.678,.084,24.703-3.297,29,1Z" fill="#0A0301"/>
<path d="M80,248c.515-5.853,1.454-11.33,3-17c-7.75,.875-7.75,.875-10,2c.33-.99,.66-1.98,1-3c3.735-.575,7.213-1,11-1c-.35,5.635-.206,11.618-2,17c-.66,0-1.32,0-2,0c-.33,.66-.66,1.32-1,2Z" fill="#C5352F"/>
<path d="M195,177c-.33-1.32-.66-2.64-1-4c-.66,0-1.32,0-2,0c-1.037-4.567-2.529-8.412-1-13c1.474,3.752,3.841,5.672,7,8c-.99,2.97-1.98,5.94-3,9Z" fill="#E8BFBE"/>
<path d="M61,144c.66,.33,.66,.33,4,2c.33-2.64,.66-5.28,1-8c.99,0,1.98,0,3,0c.348,6.969,1.006,12.974-8,12c0-1.98,0-3.96,0-6Z" fill="#CB3E1E"/>
<path d="M72,181c-1.702-5.286-8-11.834-8-16c7.041,2.034,8.545,3.013,11,10c-.99,0-1.98,0-3,0c0,.99,0,1.98,0,3c.66,.33,1.32,.66,2,1c-.66,.66-1.32,1.32-2,2Z" fill="#343029"/>
<path d="M156,145c-.99-.66-1.98-1.32-3-2c1.868-5.722,3.853-11.377,6-17c.99,.33,1.98,.66,3,1c-1.765,6.107-3.696,12.074-6,18Z" fill="#281B18"/>
<path d="M141,52c-18.655,4.055,.409-19.217,0,0Z" fill="#180D07"/>
<path d="M154,199c-.99,.33-1.98,.66-3,1c0,.66,0,1.32,0,2c.99,.33,1.98,.66,3,1c-6.682,3.048-8.224,3.682-15,1c4.238-4.907,8.749-5.245,15-5Z" fill="#5A5A59"/>
<path d="M154,97c7.09,5.553,9.972,7.249,5,16c-3.121-4.682-3.843-10.593-5-16Z" fill="#A84D48"/>
<path d="M139,199c-6.517,6.517-8.558,5.465-16,1c1-4,2-8,3-12c.66,.33,1.32,.66,2,1c-.076,4.523-.451,8.647,1,13c3.333-1,6.667-2,10-3Z" fill="#B4423C"/>
<path d="M155,189c-.118-.237-.866-1.918-1-2c-5.672-3.468-20.988,4.484-20.954-9.213c.004-1.806,.677-3.51,1.954-4.787c3.416,3.416,1.504,5.697,3,9c1.516,3.347,14.63,2.854,18,3c-.33,1.32-.66,2.64-1,4Z" fill="#370806"/>
<path d="M153,143c.66,.33,1.32,.66,2,1c-.842,6.444-3.419,12.114-6,18c-.66-.33-1.32-.66-2-1c.842-6.444,3.419-12.114,6-18Z" fill="#1A0E0D"/>
<path d="M119,224c1.65-.33,3.3-.66,5-1c0-.66,0-1.32,0-2c1.32,0,2.64,0,4,0c.33-2.97,.66-5.94,1-9c.33,0,.66,0,1,0c0,2.64,0,5.28,0,8c2.64,.33,5.28,.66,8,1c0,.33,0,.66,0,1c-5.081,.498-16.5,6.999-19,2Z" fill="#363636"/>
<path d="M188,106c0-5.388,12-5.995,12,0c-.99,0-1.98,0-3,0c0,.66,0,1.32,0,2c-2.31,0-4.62,0-7,0c0-.66,0-1.32,0-2c-.66,0-1.32,0-2,0Z" fill="#636261"/>
<path d="M168,44c6.268,.362,16.572,6.428,10,13c0-.66,0-1.32,0-2c-.66,0-1.32,0-2,0c0-.99,0-1.98,0-3c-3.351,0-5.496-5.496-8-8Z" fill="#ECCFAE"/>
<path d="M137,57c-11.011,1.024-12.144-5.06-12-14c4.244,2.122,4.309,8.077,10,11c0,.66,0,1.32,0,2c.66,.33,1.32,.66,2,1Z" fill="#CB8852"/>
<path d="M155,216c1.479,4.167,2.765,4.554,7,5c0,.33,0,.66,0,1c-9.46,2.12-12.006,.226-21-1c0-.33,0-.66,0-1c4.475-1.071,8.363-2,13-2c.33-.66,.66-1.32,1-2Z" fill="#383838"/>
<path d="M81,144c0-.99,0-1.98,0-3c-.99-.33-1.98-.66-3-1c0-.66,0-1.32,0-2c1.65,0,3.3,0,5,0c.33-1.32,.66-2.64,1-4c.33,0,.66,0,1,0c.516,10.318-3.858,17.761-12,6c.66-.33,1.32-.66,2-1c1.941,2.865,2.708,3.903,6,5Z" fill="#D23623"/>
<path d="M156,129c1.822-6.612,4.052-12.805,7-19c.99,.33,1.98,.66,3,1c-2.085,5.386-4.333,16.111-10,18Z" fill="#D9D5CE"/>
<path d="M138,77c-4.063,.467-20-1.486-20-7c3.333,.667,6.667,1.333,10,2c0,.66,0,1.32,0,2c4.526-.309,6.502,.103,10,3Z" fill="#FAD4CB"/>
<path d="M143,50c-3.515-6.25-5.986-2.493-11-5c0-.66,0-1.32,0-2c2.31,.33,4.62,.66,7,1c-.33-.66-.66-1.32-1-2c-2.64,0-5.28,0-8,0c5.776-8.664,13.942-.102,13,8Z" fill="#F1D9BF"/>
<path d="M154,34c.99,.33,1.98,.66,3,1c0,.66,0,1.32,0,2c5.333,0,10.667,0,16,0c0-1.65,0-3.3,0-5c.33,0,.66,0,1,0c0,2.31,0,4.62,0,7c-5.667,.333-11.333,.667-17,1c-.33-1.32-.66-2.64-1-4c-.66,0-1.32,0-2,0c0-.66,0-1.32,0-2Z" fill="#CA3A33"/>
<path d="M111,207c-6.143,4.095-13.976,3.093-21,3c0-.66,0-1.32,0-2c6.272-2.091,14.415-1.06,21-1Z" fill="#0B0201"/>
<path d="M87,197c-.33-.99-.66-1.98-1-3c-5.026,0-7-9.796-7-14c3.333,.667,6.667,1.333,10,2c0,.33,0,.66,0,1c-5.75,.125-5.75,.125-8-1c0,.99,0,1.98,0,3c.66,0,1.32,0,2,0c1.062,3.676,1.939,6.496,5,9c-.33,.99-.66,1.98-1,3Z" fill="#CA3530"/>
<path d="M100,164c-2.31-1.32-4.62-2.64-7-4c0-.33,0-.66,0-1c6.234-.857,12.524-1.654,18-5c2.618,7.855-7.033,6.252-12,6c.33,1.32,.66,2.64,1,4Z" fill="#476B79"/>
<path d="M204,145c2.719-6.021,5.9-5.098,12-5c-1.316,6.8-6.256,5.106-12,5Z" fill="#326EAA"/>
<path d="M189,145c-2.744-4.116-2.66-8.238-3-13c1.32-.66,2.64-1.32,4-2c3.312,5.066,1.238,9.927-1,15Z" fill="#E4B5B7"/>
<path d="M102,26c-4.822-4.822-4.105-6.514-4-13c7.736,3.868,12.216,5.547,21,6c0,.33,0,.66,0,1c-7.096,.315-12.683,.446-19-3c.66,2.97,1.32,5.94,2,9Z" fill="#993B36"/>
<path d="M64,247c1.998,5.993-3.079,15.525-4,22c-.99-.33-1.98-.66-3-1c.308-7.855,3.531-14.041,7-21Z" fill="#260202"/>
<path d="M92,208c-3.667,0-7.333,0-11,0c.875-5.75,.875-5.75,2-8c3.15,2.282,7.229,4.458,9,8Z" fill="#B04F47"/>
<path d="M200,155c0-.99,0-1.98,0-3c3.429-1.714,9.599-1.7,13,0c0,.99,0,1.98,0,3c-4.333,0-8.667,0-13,0Z" fill="#3970A8"/>
<path d="M123,98c5.557,.751,8.008,2.247,9,8c-2.83,1.887-3.651,2.888-5,6c-1.65-1.65-3.3-3.3-5-5c1.65-.66,3.3-1.32,5-2c0-4.376-.367-4.729-4-7Z" fill="#210301"/>
<path d="M213,218c5.903-2.872,10.891-1.413,17,0c-4.101,5.203-11.835,2.912-17,0Z" fill="#2E2824"/>
<path d="M166,200c9.077-.071,19.147-1.029,28,1c0,.33,0,.66,0,1c-10.076,.865-18.061-.207-28-1c0-.33,0-.66,0-1Z" fill="#33312F"/>
<path d="M242,225c5.009-2.504,9.087-6.275,14-3c-.66,1.65-1.32,3.3-2,5c-4-.667-8-1.333-12-2Z" fill="#1E1916"/>
<path d="M132,53c3.213-3.213,4.875-1,9-1c0-1.32,0-2.64,0-4c1.32,.33,2.64,.66,4,1c-.557,5.201-4.788,9.317-10,7c0-.66,0-1.32,0-2c-.99-.33-1.98-.66-3-1Z" fill="#C68E64"/>
<path d="M195,133c.33-2.31,.66-4.62,1-7c9.336-.239,8.524,7.203-1,7Z" fill="#8D6C6A"/>
<path d="M116,131c-9.669,.558-11.327-.708-10-10c2,3,2,3,3,5c3.3,0,6.6,0,10,0c-1.487,2.975-3.891,2.603-7,3c1.32,.66,2.64,1.32,4,2Z" fill="#461609"/>
<path d="M178,104c.66,0,1.32,0,2,0c0-.66,0-1.32,0-2c3.105-1.552,6.453-1.095,8,2c-.33,.165-.33,.165-2,1c.33,.99,.66,1.98,1,3c-2.31,0-4.62,0-7,0c-.667-1.333-1.333-2.667-2-4Z" fill="#3C3C3B"/>
<path d="M47,247c.632-5.053,2.135-9.296,4-14c.99,.33,1.98,.66,3,1c-.458,3.469-.891,6.674-2,10c-1.32,0-2.64,0-4,0c-.33,.99-.66,1.98-1,3Z" fill="#252B33"/>
<path d="M56,142c3.85,3.85,5.499,9.675,5,15c-6.692-2.807-5.107-8.662-5-15Z" fill="#2D201E"/>
<path d="M184,118c-3.815,1.467-6.29,.433-10-1c2.237-2.043,3.041-3.123,4-6c2.64,0,5.28,0,8,0c0,.66,0,1.32,0,2c-1.65,.33-3.3,.66-5,1c0,.99,0,1.98,0,3c.99,.33,1.98,.66,3,1Z" fill="#D6B3B3"/>
<path d="M176,111c-2.912,2.426-3,3.238-3,7c-2.31,0-4.62,0-7,0c.66-2.31,1.32-4.62,2-7c2.64,0,5.28,0,8,0Z" fill="#DCB6B5"/>
<path d="M83,72c0-.99,0-1.98,0-3c-.66,0-1.32,0-2,0c.99-4.836,1.957-9.476,4-14c3.419,5.128,1.194,12.209-2,17Z" fill="#301B1B"/>
<path d="M88,81c-2.31,.33-4.62,.66-7,1c1.279-7.609,3.428-14.732,6-22c1.911,6.122-1.375,14.003-3,20c1.32,.33,2.64,.66,4,1Z" fill="#A53C39"/>
<path d="M87,32c-1.125-5.625-1.125-5.625,0-9c3.333,.333,6.667,.667,10,1c0,.66,0,1.32,0,2c-1.155,.495-1.155,.495-7,3c-.33-.33-.66-.66-1-1c-.66,1.32-1.32,2.64-2,4Z" fill="#3D3938"/>
<path d="M90,236c.628-2.929,1.586-5.361,3-8c1.32,0,2.64,0,4,0c.077,4.516,.102,8.591-1,13c-.33,0-.66,0-1,0c-.33-1.98-.66-3.96-1-6c-.99-.33-1.98-.66-3-1c-.33,.66-.66,1.32-1,2Z" fill="#CE4036"/>
<path d="M187,203c.66-.66,1.32-1.32,2-2c-4.333-.333-8.667-.667-13-1c0-.33,0-.66,0-1c6.672-.512,13.301-1.082,20-1c-.33,1.65-.66,3.3-1,5c-2.64,0-5.28,0-8,0Z" fill="#4F4944"/>
<path d="M104,125c-2.16-6.48-1.064-15.172-1-22c.33,0,.66,0,1,0c1.207,5.766,4.321,17.679,0,22Z" fill="#300000"/>
<path d="M62,104c-2.287-6.861,2.8-11,9-11c-1.667,3-3.333,6-5,9c-.99-.33-1.98-.66-3-1c-.33,.99-.66,1.98-1,3Z" fill="#360807"/>
<path d="M77,84c-.66-.33-1.32-.66-2-1c0-4.333,0-8.667,0-13c.99,0,1.98,0,3,0c0,.66,0,1.32,0,2c.66,.33,1.32,.66,2,1c-1,3.667-2,7.333-3,11Z" fill="#D7D7D6"/>
<path d="M84,80c.29-4.129-.626-12,5-12c0,.66,0,1.32,0,2c-.66,0-1.32,0-2,0c-.624,8.116,5.136,10.016,3,15c-.66-.33-1.32-.66-2-1c0-1.32,0-2.64,0-4c-1.32,0-2.64,0-4,0Z" fill="#C8312E"/>
<path d="M151,216c-1.026-3.81-2.057-7.531-4-11c4.106-4.106,8.622,2.134,7,7c-.66,0-1.32,0-2,0c-.33,1.32-.66,2.64-1,4Z" fill="#6B6B6A"/>
<path d="M230,175c.99-.99,1.98-1.98,3-3c6.525,2.7,10.559,13,1,13c0-.99,0-1.98,0-3c.99,0,1.98,0,3,0c0-.66,0-1.32,0-2c-.66,0-1.32,0-2,0c0-1.65,0-3.3,0-5c-1.65,0-3.3,0-5,0Z" fill="#383735"/>
<path d="M217,132c0-.99,0-1.98,0-3c-.66,0-1.32,0-2,0c1.037-3.81,1.676-12.662,7-10c-.902,3.987-1.321,11.16-5,13Z" fill="#302627"/>
<path d="M153,73c-3.305-3.085-5.006-6.012-7-10c.66,0,1.32,0,2,0c0-1.98,0-3.96,0-6c.66,0,1.32,0,2,0c1.369,5.66,3.127,10.153,3,16Z" fill="#110C0A"/>
<path d="M92,27c1.65-.33,3.3-.66,5-1c-.165-.825-.165-.825-1-5c4.636,0,6,3.58,6,8c-4.379,.141-6.855,1.145-10-2Z" fill="#300404"/>
<path d="M44,215c1.32-.66,2.64-1.32,4-2c-4.333-.333-8.667-.667-13-1c0-.33,0-.66,0-1c10.319-.123,19.762,1.314,30,2c0,.33,0,.66,0,1c-7,.333-14,.667-21,1Z" fill="#50453B"/>
<path d="M207,192c-2.807,4.21-4.587,9-11,9c0-4.694,6.218-11.391,11-9Z" fill="#1F1B19"/>
<path d="M113,141c2.663-3.773,3.32-6.41,3-11c1.65,0,3.3,0,5,0c-.667,3.333-1.333,6.667-2,10c-1.98,.33-3.96,.66-6,1Z" fill="#507585"/>
<path d="M151,104c-2.486-3.73-1.866-8.479-4.119-11.649C143.834,88.066,140.678,89.042,139,83c10.298,7.646,12.429,6.121,12,21Z" fill="#B9463F"/>
<path d="M70,97c0-9.981,12.151-12.641,20-12c-1.029,2.058-13.331,3.426-20,12Z" fill="#B2423D"/>
<path d="M64,256c1.827,4.751-1.644,16.203-2,22c.66,0,1.32,0,2,0c0,.66,0,1.32,0,2c-1.32-.33-2.64-.66-4-1c-.298-8.194,1.231-15.285,4-23Z" fill="#C63731"/>
<path d="M176,211c-1.65,.33-3.3,.66-5,1c0,.66,0,1.32,0,2c-1.32,0-2.64,0-4,0c-.33-2.97-.66-5.94-1-9c.825,.165,.825,.165,5,1c1.114,3.343,1.775,3.648,5,5Z" fill="#856A50"/>
<path d="M220,205c-2.31,0-4.62,0-7,0c-.66-1.32-1.32-2.64-2-4c4.75-5,4.75-5,7-5c.177,3.363,.503,4.497-2,7c1.32,.66,2.64,1.32,4,2Z" fill="#241F1D"/>
<path d="M84,177c8,.667,16,1.333,24,2c0,.33,0,.66,0,1c-7.844,.725-15.197,1.211-23,0c-.33-.99-.66-1.98-1-3Z" fill="#070716"/>
<path d="M154,199c.99,0,1.98,0,3,0c0-.66,0-1.32,0-2c3.459,1.249,6.147,2.675,9,5c-2.408,1.204-2.197,1.59-3,4c-2.94-2.482-5.792-4.861-9-7Z" fill="#161616"/>
<path d="M213,145c-3.263,3.263-7.694,2.143-12,2c-1.71-5.13-.134-6.711,5-5c-.33,.495-.33,.495-2,3c2.97,0,5.94,0,9,0Z" fill="#426D9A"/>
<path d="M200,104c.815,2.446,1.176,2.648,0,5c2.31,0,4.62,0,7,0c0,.66,0,1.32,0,2c-3.361,.379-6.923,.461-10,2c0-.99,0-1.98,0-3c-.66,0-1.32,0-2,0c0-.66,0-1.32,0-2c.66,0,1.32,0,2,0c0-.66,0-1.32,0-2c.99,0,1.98,0,3,0c0-.66,0-1.32,0-2Z" fill="#0D0807"/>
<path d="M144,39c1.32,.66,2.64,1.32,4,2c.315,5.99-.318,9.636-3,15c-1.32-.33-2.64-.66-4-1c4.859-4.437,4.981-10.058,3-16Z" fill="#FDE5CA"/>
<path d="M42,228c4.462-1.806,7.31-2.117,12-1c0,.33,0,.66,0,1c-1.98,0-3.96,0-6,0c0,.66,0,1.32,0,2c1.65,.33,3.3,.66,5,1c-.33,.66-.66,1.32-1,2c-3.667,0-7.333,0-11,0c0-.33,0-.66,0-1c1.65,0,3.3,0,5,0c0-.99,0-1.98,0-3c-1.32-.33-2.64-.66-4-1Z" fill="#6B5D51"/>
<path d="M197,148c-.99-.33-1.98-.66-3-1c0-1.65,0-3.3,0-5c-.66,0-1.32,0-2,0c.33-1.65,.66-3.3,1-5c1.65,.33,3.3,.66,5,1c-.333,3.333-.667,6.667-1,10Z" fill="#E7B8BA"/>
<path d="M176,134c.33,.495,.33,.495,2,3c-.33,.66-.66,1.32-1,2c-1.65-.33-3.3-.66-5-1c1.047-6.63,1.219-7.357,8-7c.33,.66,.66,1.32,1,2c-1.65,.33-3.3,.66-5,1Z" fill="#755251"/>
<path d="M89,47c3.646,5.469,.494,10.579-2,16c-.33,0-.66,0-1,0c-.327-6.131-.394-10.627,3-16Z" fill="#341717"/>
<path d="M152,191c-.33-1.32-.66-2.64-1-4c-6.007,.396-18,2.404-18-7c6.864,6.788,12.967,5.882,22,6c-.99,1.65-1.98,3.3-3,5Z" fill="#B14642"/>
<path d="M119,130c5.42-3.614,11.573-5.716,18-4c-1.918,3.836-13.61,4.07-18,4Z" fill="#3E6891"/>
<path d="M139,109c-4.929-3.878-8.542-7.761-12-13c2.64,.66,5.28,1.32,8,2c1.034,3.841,2.137,7.461,4,11Z" fill="#BE403A"/>
<path d="M162,76c-2.392-1.619-13.049-7.951-9-12c5.434,1.874,5.43,6.953,10,10c-.33,.66-.66,1.32-1,2Z" fill="#E4C9AA"/>
<path d="M94,39c-4.225-1.831-9.194-7.806-5-12c3.247,4.133,5,6.639,5,12Z" fill="#2E1B1B"/>
<path d="M121,218c-1.058-4.459-2.156-8.785-4-13c7.248,.75,8.837,8.163,4,13Z" fill="#141414"/>
<path d="M112,220c-.859-7.734-1.13-8.973-9-10c0-.33,0-.66,0-1c10.733-2.76,13.413,1.141,10,11c-.33,0-.66,0-1,0Z" fill="#18120E"/>
<path d="M147,160c-.99-.33-1.98-.66-3-1c1.333-4,2.667-8,4-12c.99,.33,1.98,.66,3,1c-1.333,4-2.667,8-4,12Z" fill="#D7D4CF"/>
<path d="M139,83c-.66,0-1.32,0-2,0c0-1.32,0-2.64,0-4c-3.901,.132-13,1.646-13-4c4.667,.667,9.333,1.333,14,2c.33,1.98,.66,3.96,1,6Z" fill="#B6463E"/>
<path d="M126,53c4.584,3.667,9.432,3.292,15,3c0,.66,0,1.32,0,2c-4.803,1.601-10.165,1.612-15,0c0-1.65,0-3.3,0-5Z" fill="#FCE3C7"/>
<path d="M151,59c-.33-.66-.66-1.32-1-2c-.66,0-1.32,0-2,0c1.597-4.221,3.505-10.748,9-8c-2,3.333-4,6.667-6,10Z" fill="#19120D"/>
<path d="M91,232c.33-1.98,.66-3.96,1-6c2.64,0,5.28,0,8,0c-.667,3.333-1.333,6.667-2,10c-.33,0-.66,0-1,0c0-2.64,0-5.28,0-8c-1.32,0-2.64,0-4,0c-.66,1.32-1.32,2.64-2,4Z" fill="#B14942"/>
<path d="M213,164c-.33-1.32-.66-2.64-1-4c-3.667,0-7.333,0-11,0c0-.66,0-1.32,0-2c10.558-1.333,10.558-1.333,15,0c-.99,.33-1.98,.66-3,1c0,1.65,0,3.3,0,5Z" fill="#000614"/>
<path d="M87,68c.33-2.64,.66-5.28,1-8c.66,0,1.32,0,2,0c.461-2.505,.851-4.702,2-7c.33,0,.66,0,1,0c.125,6.75,.125,6.75-1,9c-.66,0-1.32,0-2,0c0,1.32,0,2.64,0,4c-.66,0-1.32,0-2,0c-.33,.66-.66,1.32-1,2Z" fill="#D03C33"/>
<path d="M103,221c0-.33,0-.66,0-1c1.98-.33,3.96-.66,6-1c0-1.98,0-3.96,0-6c-1.98-.66-3.96-1.32-6-2c0-.33,0-.66,0-1c9.434-.629,9.421,2.436,9,11c-2.97,0-5.94,0-9,0Z" fill="#826B56"/>
<path d="M161,172c0-.99,0-1.98,0-3c.66,0,1.32,0,2,0c-.33,1.32-.66,2.64-1,4c-1.98,0-3.96,0-6,0c-.5-6.167,.7-8,7-8c0,.66,0,1.32,0,2c-.66,.33-.66,.33-4,2c0,.66,0,1.32,0,2c.66,.33,1.32,.66,2,1Z" fill="#D3AFAF"/>
<path d="M149,138c-3.333-.333-6.667-.667-10-1c0-.33,0-.66,0-1c4.041-.634,7.907-1.124,12-1c1.202,3.366,.823,4.997-1,8c-.66-.33-1.32-.66-2-1c.33-1.32,.66-2.64,1-4Z" fill="#050B15"/>
<path d="M148,123c-4.667,0-9.333,0-14,0c0-.66,0-1.32,0-2c3.3,0,6.6,0,10,0c.33-.99,.66-1.98,1-3c2.653,1.327,2.306,2.223,3,5Z" fill="#0E0305"/>
<path d="M208,104c-.66,0-1.32,0-2,0c0,1.32,0,2.64,0,4c-1.65,0-3.3,0-5,0c-1.561-6.762-.556-6.139,6-6c.33,.66,.66,1.32,1,2Z" fill="#7C7C79"/>
<path d="M179,72c2.488,3.538-.846,14-5,14c0-1.65,0-3.3,0-5c.66,0,1.32,0,2,0c.547-3.284,1.373-6.071,3-9Z" fill="#DEC1A3"/>
<path d="M74,276c-.66-1.32-1.32-2.64-2-4c.66,0,1.32,0,2,0c1.325-3.568,2.974-6.777,5-10c.66,.66,1.32,1.32,2,2c-2.333,4-4.667,8-7,12Z" fill="#413838"/>
<path d="M84,228c-4,0-8,0-12,0c0-.66,0-1.32,0-2c3.27-1.635,7.439-1.066,11-1c.33,.99,.66,1.98,1,3Z" fill="#1C0101"/>
<path d="M171,214c0-.99,0-1.98,0-3c5.447-.097,10.639-.129,16,1c0,.33,0,.66,0,1c-5.333,.333-10.667,.667-16,1Z" fill="#755C48"/>
<path d="M182,186c2.084-4.168,5.835-1.302,9.443-2.98c1.355-.63,1.549-2.331,2.557-3.02c.33,0,.66,0,1,0c0,1.98,0,3.96,0,6c-4.333,0-8.667,0-13,0Z" fill="#0B0303"/>
<path d="M143,148c1.244-2.877,2-4.833,2-8c-3.333-.333-6.667-.667-10-1c0-.33,0-.66,0-1c4.667,0,9.333,0,14,0c-1.423,4.813-1.117,8.372-6,10Z" fill="#3C6185"/>
<path d="M113,138c0-1.65,0-3.3,0-5c-3.333-.667-6.667-1.333-10-2c0-1.65,0-3.3,0-5c4.275,0,6.248,5.507,12,6c0,1.65,0,3.3,0,5c-.33,.165-.33,.165-2,1Z" fill="#F0BE5C"/>
<path d="M185,140c-.33,0-.66,0-1,0c-1.876-6.165-2.344-7.949-9-9c0-.66,0-1.32,0-2c9.95-.563,10.475,1.352,10,11Z" fill="#DDB9B8"/>
<path d="M224,109c-3.486,3.486-10.315,2.119-15,2c.33-.66,.66-1.32,1-2c2.31,0,4.62,0,7,0c0-.99,0-1.98,0-3c.66,0,1.32,0,2,0c0,.99,0,1.98,0,3c1.65,0,3.3,0,5,0Z" fill="#0C0A09"/>
<path d="M130,100c3.26,3.17,6.222,6.399,9,10c-4.532,2.182-6.192-.801-9-4c.66,0,1.32,0,2,0c-.66-1.98-1.32-3.96-2-6Z" fill="#3F100B"/>
<path d="M128,39c-3.423,3.423-2.13,9.288-2,14c-.99,0-1.98,0-3,0c-.151-5.416-1.128-10.308,2-15c.99,.33,1.98,.66,3,1Z" fill="#F8D9B9"/>
<path d="M130,121c-1.65,.33-3.3,.66-5,1c-1.111-3.007-2.478-5.044-1-8c3.888,1.426,4.79,3.168,6,7Z" fill="#D23E33"/>
<path d="M135,118c-.66,0-1.32,0-2,0c-.33,.66-.66,1.32-1,2c-2.333-2.667-4.667-5.333-7-8c.99-.66,1.98-1.32,3-2c2.648,2.578,4.944,4.916,7,8Z" fill="#43110A"/>
<path d="M137,115c-2.584-2.584-4.461-2.538-8-3c-3.025-10.421,6.172-2.064,9,1c-.33,.66-.66,1.32-1,2Z" fill="#E3BC94"/>
<path d="M212,102c5.885-.477,7.957,.953,9,7c-.66,0-1.32,0-2,0c0-.99,0-1.98,0-3c-.66,0-1.32,0-2,0c0,.66,0,1.32,0,2c-1.98,0-3.96,0-6,0c1.879-2.819,1.503-3,5-3c0-.66,0-1.32,0-2c-1.32-.33-2.64-.66-4-1Z" fill="#8A8989"/>
<path d="M127,95c-5.47,3.647-7.65,3.683-7,11c-.99-.33-1.98-.66-3-1c0-2.31,0-4.62,0-7c.99,0,1.98,0,3,0c0-.99,0-1.98,0-3c2.31,0,4.62,0,7,0Z" fill="#B53935"/>
<path d="M87,229c.33,.66,.66,1.32,1,2c.66,0,1.32,0,2,0c.33-1.32,.66-2.64,1-4c1.777,3.554-.841,8.451-2,12c-.66-.66-1.32-1.32-2-2c-.33,.165-.33,.165-2,1c.66-2.97,1.32-5.94,2-9Z" fill="#420908"/>
<path d="M64,238c-.815-2.446-1.176-2.648,0-5c-4.394,.382-6.504,.362-8,5c-.66,0-1.32,0-2,0c.66-2.31,1.32-4.62,2-7c2.97,.33,5.94,.66,9,1c-.33,1.98-.66,3.96-1,6Z" fill="#406A96"/>
<path d="M79,188c-.99-.165-.99-.165-6-1c-.25-5.625-.25-5.625,2-9c2.19,3.285,2.998,6.207,4,10Z" fill="#2D1211"/>
<path d="M228,180c-.33-1.32-.66-2.64-1-4c3.426-1.618,5.381-2.341,9-1c0,.99,0,1.98,0,3c-2.771,.524-5.326,1.109-8,2Z" fill="#130F0C"/>
<path d="M190,127c3-1,3-1,4-1c.33,1.98,.66,3.96,1,6c1.65,.33,3.3,.66,5,1c-2.427,3.034-3.34,3.388-7,2c-.363-3.329,.161-6.42-3-8Z" fill="#D3ACAB"/>
<path d="M112,58c-2.592-4.576-1.761-15.239,2-19c.66,.66,1.32,1.32,2,2c-2.87,5.739-3.629,10.647-4,17Z" fill="#BE4941"/>
<path d="M94,172c-6.667,0-13.333,0-20,0c-1.049-2.098-1.048-1.903,0-4c6.689,1.93,13.079,2.562,20,3c0,.33,0,.66,0,1Z" fill="#536C67"/>
<path d="M161,164c2.076-.553,3.844-1,6-1c0,1.32,0,2.64,0,4c-.66,0-1.32,0-2,0c-.33,.66-.66,1.32-1,2c-.99,0-1.98,0-3,0c0,.99,0,1.98,0,3c-.99-.33-1.98-.66-3-1c.66-1.32,1.32-2.64,2-4c.99,0,1.98,0,3,0c0-.66,0-1.32,0-2c-.66-.33-1.32-.66-2-1Z" fill="#8C6665"/>
<path d="M124,106c-.66-1.65-1.32-3.3-2-5c1.611-1.611,3.866-.492,6,0c0,1.32,0,2.64,0,4c-1.32,.33-2.64,.66-4,1Z" fill="#CB9B99"/>
<path d="M158,96c-7.537,2.261-6.436-2.078-7-8c2.64,0,5.28,0,8,0c0,.33,0,.66,0,1c-1.98,0-3.96,0-6,0c1.293,2.884,2.659,4.872,5,7Z" fill="#3C3635"/>
<path d="M133,53c-3.926-1.9-8.195-6.805-4-11c1.894,3.789,4,6.653,4,11Z" fill="#FBE4C8"/>
<path d="M130,18c-4.573,4.573-13.991,3.079-20,3c0-.33,0-.66,0-1c6.742-1.258,13.135-2.264,20-2Z" fill="#BC443C"/>
<path d="M235,220c5.762-3.842,6.815-2.507,13,0c0,.66,0,1.32,0,2c-4.333-.667-8.667-1.333-13-2Z" fill="#735B45"/>
<path d="M202,157c-1.32-.66-2.64-1.32-4-2c0-7.732,6.963-5.082,13-5c0,.33,0,.66,0,1c-3.667,.333-7.333,.667-11,1c0,.99,0,1.98,0,3c.66,0,1.32,0,2,0c0,.66,0,1.32,0,2Z" fill="#35577C"/>
<path d="M206,136c0,.99,0,1.98,0,3c-4.926,1.702-7.845,2.268-8,8c-.66,0-1.32,0-2,0c-.588-5.562,4.021-11,10-11Z" fill="#221319"/>
<path d="M104,147c-.99-.33-1.98-.66-3-1c0-6.941,5.179-8.76,11-7c-2.558,2.558-6.005,4.004-9,6c.33,.66,.66,1.32,1,2Z" fill="#E8C04B"/>
<path d="M112,61c3.755,5.632,5.984,9.445,12,13c-1.32,.33-2.64,.66-4,1c0-.66,0-1.32,0-2c-7.04-3.399-7.376-4.262-8-12Z" fill="#B94A41"/>
<path d="M172,44c6.226-3.012,5.283-4.548,6-11c.66,0,1.32,0,2,0c.381,6.736,1.479,13.818-8,11Z" fill="#3B3432"/>
<path d="M152,124c.825,.165,.825,.165,5,1c-.97,4.106-.739,6.58-5,8c.519-3.111,1.477-6.047,0-9Z" fill="#0C121A"/>
<path d="M212,107c1.65,.33,3.3,.66,5,1c0,.33,0,.66,0,1c-2.31,0-4.62,0-7,0c0-.66,0-1.32,0-2c-.66,0-1.32,0-2,0c0-4.143,4.684-4.179,8-4c0,.66,0,1.32,0,2c-.66,.33-.66,.33-4,2Z" fill="#313130"/>
<path d="M179,164c.33,1.32,.66,2.64,1,4c1.32,0,2.64,0,4,0c0-.66,0-1.32,0-2c-.99,.33-1.98,.66-3,1c0-.99,0-1.98,0-3c1.32,0,2.64,0,4,0c.153,5.949,.104,6.157-6,6c-1.245-2.491-.777-3.411,0-6Z" fill="#D1AFAD"/>
<path d="M141,157c2.3,4.6,1.641,6.259,0,11c-1.32-.66-2.64-1.32-4-2c1.32-2.97,2.64-5.94,4-9Z" fill="#0C1823"/>
<path d="M213,156c2.79-1.89,3.912-2.736,5-6c4.904,2.452,1.466,6.942-2,9c-.99-.99-1.98-1.98-3-3Z" fill="#111A23"/>
<path d="M59,118c-3.584-3.584-1.032-10.664,1-15c2.435,2.435,2.041,2.878,1,6c-.66,0-1.32,0-2,0c0,2.97,0,5.94,0,9Z" fill="#3F3A3A"/>
<path d="M109,53c3.468,1.734,2.743,7.277,3,11c-.99,0-1.98,0-3,0c0-3.667,0-7.333,0-11Z" fill="#C63830"/>
<path d="M155,46c-1.65,2.64-3.3,5.28-5,8c-.66-.66-1.32-1.32-2-2c1.854-5.81,.957-7.511,7-6Z" fill="#E3DDD4"/>
<path d="M141,52c-1.98-.66-3.96-1.32-6-2c.624-3.87,1.899-6.05,6-4c0,1.98,0,3.96,0,6Z" fill="#201712"/>
<path d="M161,46c2.896-4.344,9.092-4.908,13-1c-4.294,1.251-8.585,1.085-13,1Z" fill="#DDC1A5"/>
<path d="M115,43c1.65-5.251,5.25-8.25,9-12c.66,.33,1.32,.66,2,1c-1.877,2.815-1.606,3-5,3c0,.66,0,1.32,0,2c-.66,0-1.32,0-2,0c-.508,2.176-.999,3.999-2,6c-.66,0-1.32,0-2,0Z" fill="#F9CCC1"/>
<path d="M57,282c.33,.66,.66,1.32,1,2c1.485-.165,1.485-.165,9-1c-3.569,3.365-5.075,4.688-10,3c0-1.32,0-2.64,0-4Z" fill="#393535"/>
<path d="M80,248c.223-2.849-.101-11,4-11c-.33,2.97-.66,5.94-1,9c-.66,0-1.32,0-2,0c-.33,.66-.66,1.32-1,2Z" fill="#BB3A35"/>
<path d="M210,202c3.5,2.334,5.916,2.538,10,3c0,.66,0,1.32,0,2c-4.682,.153-6.942,.706-11-2c.33-.99,.66-1.98,1-3Z" fill="#0C0503"/>
<path d="M77,196c-.875,6.75-.875,6.75-2,9c-.66,0-1.32,0-2,0c-.155-3.477-.66-9,4-9Z" fill="#3A76B1"/>
<path d="M178,176c2.461-.313,6.188-.188,8-2c1,3,1,3,1,6c-1.65,0-3.3,0-5,0c0-.99,0-1.98,0-3c-1.32-.33-2.64-.66-4-1Z" fill="#DBA19F"/>
<path d="M171,170c2.22,2.109,5,3.864,5,7c-.99-.165-.99-.165-6-1c-.33-1.32-.66-2.64-1-4c.66,0,1.32,0,2,0c0-.66,0-1.32,0-2Z" fill="#DEA7A6"/>
<path d="M125,112c3.199,2.421,8,5.74,8,10c-2.64,.33-5.28,.66-8,1c2.068-2.068,2.07-2,5-2c-2.046-2.97-3.85-5.551-5-9Z" fill="#B14B45"/>
<path d="M180,74c-1.478-2.957-1.06-5.742-1-9c.33,0,.66,0,1,0c.33-1.65,.66-3.3,1-5c.33,0,.66,0,1,0c.125,4.55,1.42,10.58-2,14Z" fill="#EACDAE"/>
<path d="M93,35c5.681,2.841,6.558,4.442,2,9c-.66-2.97-1.32-5.94-2-9Z" fill="#250201"/>
<path d="M62,239c1.623,4.868,.202,10.944-4,14c.33-2.31,.66-4.62,1-7c.66,0,1.32,0,2,0c.33-2.31,.66-4.62,1-7Z" fill="#4673A1"/>
<path d="M119,224c1.65-.33,3.3-.66,5-1c0-.66,0-1.32,0-2c1.32,0,2.64,0,4,0c.33,1.32,.66,2.64,1,4c-1.485,.165-1.485,.165-9,1c-.33-.66-.66-1.32-1-2Z" fill="#2B2B2B"/>
<path d="M238,214c-.66,0-1.32,0-2,0c.33,1.32,.66,2.64,1,4c-2.31,.33-4.62,.66-7,1c-.33-.66-.66-1.32-1-2c.99,0,1.98,0,3,0c0-.66,0-1.32,0-2c.99,0,1.98,0,3,0c0-.66,0-1.32,0-2c.99,.33,1.98,.66,3,1Z" fill="#80644A"/>
<path d="M99,207c2-4,2-4,4-6c.66,.33,1.32,.66,2,1c-.33,1.32-.66,2.64-1,4c1.65,0,3.3,0,5,0c0,.33,0,.66,0,1c-3.3,0-6.6,0-10,0Z" fill="#280F0F"/>
<path d="M195,185c-1.125-6.625-1.125-6.625,0-10c.99,.33,1.98,.66,3,1c-.75,6.75-.75,6.75-3,9Z" fill="#302827"/>
<path d="M139,170c.99,.99,1.98,1.98,3,3c-.99,2.31-1.98,4.62-3,7c-.66-.33-1.32-.66-2-1c.66-2.97,1.32-5.94,2-9Z" fill="#E0DCD7"/>
<path d="M61,150c2.59,2.59,2.801,6.401,6,8c-.33,1.65-.66,3.3-1,5c-3.442-4.224-5-7.501-5-13Z" fill="#DDB559"/>
<path d="M102,145c7.714-4,7.714-4,11-4c0,.66,0,1.32,0,2c-.99,0-1.98,0-3,0c0,1.32,0,2.64,0,4c-2.64-.66-5.28-1.32-8-2Z" fill="#627158"/>
<path d="M157,102c4.114,2.742,4.616,7.384,1,11c-1.283-3.85-1.066-6.947-1-11Z" fill="#B74741"/>
<path d="M171,101c4.073-.322,4.669-.497,7,3c-2.556,3.834-3.764,3.276-8,3c.33-.66,.66-1.32,1-2c1.32,0,2.64,0,4,0c0-.66,0-1.32,0-2c-1.32-.66-2.64-1.32-4-2Z" fill="#858380"/>
<path d="M165,79c.99,.66,1.98,1.32,3,2c-.33,1.32-.66,2.64-1,4c-1.98,0-3.96,0-6,0c0-.66,0-1.32,0-2c.99,0,1.98,0,3,0c.33-1.32,.66-2.64,1-4Z" fill="#120D08"/>
<path d="M35,230c3.734-.879,7.168-1.089,11-1c0,.99,0,1.98,0,3c-7.429,.286-7.429,.286-11-2Z" fill="#0E0601"/>
<path d="M103,233c-2-3.75-2-3.75-2-6c.66,0,1.32,0,2,0c-.33-1.32-.66-2.64-1-4c3.333,.333,6.667,.667,10,1c0,.33,0,.66,0,1c-2.64,0-5.28,0-8,0c-.33,2.64-.66,5.28-1,8Z" fill="#504C4B"/>
<path d="M139,164c-1.107-3.685-.954-4.781,1-8c-.66,0-1.32,0-2,0c0-.66,0-1.32,0-2c1.32-.66,2.64-1.32,4-2c1.776,3.551-1.519,8.555-3,12Z" fill="#416588"/>
<path d="M194,119c-2.64,0-5.28,0-8,0c.604-3.363,.127-6,4-6c0,1.32,0,2.64,0,4c1.32,.66,2.64,1.32,4,2Z" fill="#E5B1B0"/>
<path d="M221,112c-1,3.333-2,6.667-3,10c-4.362-2.181-1.716-10,3-10Z" fill="#CEB1B0"/>
<path d="M102,30c-3.542,1.371-4.484,2.128-5,6c-2.474-2.165-3-2.6-3-6c2.64,0,5.28,0,8,0Z" fill="#C93730"/>
<path d="M88,262c-2.435,2.435-2.878,2.041-6,1c-.047-2.222-1.054-7,2-7c0,1.65,0,3.3,0,5c1.32,.33,2.64,.66,4,1Z" fill="#A84741"/>
<path d="M49,250c1.461,2.647,2,3.894,2,7c1.32,.33,2.64,.66,4,1c-1.65,.66-3.3,1.32-5,2c-1.879-1.879-1.048-7.368-1-10Z" fill="#406083"/>
<path d="M101,242c-2.125-3.188-2.502-5.265-3-9c1.32,.33,2.64,.66,4,1c-.33,2.64-.66,5.28-1,8Z" fill="#402A29"/>
<path d="M43,227c-2.694,3.591-4.873,3.275-9,3c.66-1.32,1.32-2.64,2-4c2.31,.33,4.62,.66,7,1Z" fill="#80634A"/>
<path d="M256,222c-2.22-2.109-5-3.864-5-7c.99,.165,.99,.165,6,1c-.33,1.98-.66,3.96-1,6Z" fill="#1A1816"/>
<path d="M152,203c4.374,.437,4.805,2.116,6,6c-.99,.33-1.98,.66-3,1c-3-4.75-3-4.75-3-7Z" fill="#10110E"/>
<path d="M157,190c-.815-2.446-1.176-2.648,0-5c5,0,10,0,15,0c0,.33,0,.66,0,1c-4.333,0-8.667,0-13,0c-.66,1.32-1.32,2.64-2,4Z" fill="#292322"/>
<path d="M180,159c-2.446,2.871-3.48,5.254-4,9c-.33,0-.66,0-1,0c-.811-4.497-2.486-8.129,2-11c.99,.66,1.98,1.32,3,2Z" fill="#E9BCBB"/>
<path d="M143,149c1.393-2.301,2.796-4.592,4-7c.99,.33,1.98,.66,3,1c-.66,2.31-1.32,4.62-2,7c-1.65-.33-3.3-.66-5-1Z" fill="#0E141F"/>
<path d="M217,144c.66-1.98,1.32-3.96,2-6c.33,0,.66,0,1,0c1.791,5.899,2.084,9.932,1,16c-.33,0-.66,0-1,0c0-2.97,0-5.94,0-9c-.99-.33-1.98-.66-3-1Z" fill="#3C444E"/>
<path d="M118,70c3.333,.667,6.667,1.333,10,2c0,.66,0,1.32,0,2c-2.836,1.309-10-.406-10-4Z" fill="#FBDCD3"/>
<path d="M181,203c2.354-4.707,8.863-2.564,13-2c0,.33,0,.66,0,1c-2.167,.167-2.167,.167-13,1Z" fill="#160C04"/>
<path d="M139,199c2.78-4.39,6.647-4.647,10-8c.66,.33,1.32,.66,2,1c-3.905,3.533-6.802,5.639-12,7Z" fill="#B0433E"/>
<path d="M80,195c-2.474-2.165-3-2.6-3-6c-1.32,0-2.64,0-4,0c.33-.99,.66-1.98,1-3c.825,.33,.825,.33,5,2c.33,2.31,.66,4.62,1,7Z" fill="#080610"/>
<path d="M171,154c-2.974,1.983-3.623,2.164-7,1c.33-1.65,.66-3.3,1-5c2.993,.998,3.948,1.752,6,4Z" fill="#DCAFB0"/>
<path d="M143,149c-3.296,1.831-6.303,3.303-9,6c-.165-.825-.165-.825-1-5c3.63-.847,6.339-2.098,10-1Z" fill="#3B6A96"/>
<path d="M146,88c6.755,0,6.216,4.269,6,10c-3.351-1.676-2.666-5.494-3-9c-.99-.33-1.98-.66-3-1Z" fill="#400C0A"/>
<path d="M247,226c3-2,3-2,6-2c0-.66,0-1.32,0-2c.99,0,1.98,0,3,0c-.66,1.65-1.32,3.3-2,5c-2.31-.33-4.62-.66-7-1Z" fill="#474646"/>
<path d="M89,224c-4-.333-8-.667-12-1c0-.66,0-1.32,0-2c4.548-.178,7.879,.002,12,2c0,.33,0,.66,0,1Z" fill="#7C5E43"/>
<path d="M162,221c-.33-.99-.66-1.98-1-3c3.625-1.812,9.007-1.06,13-1c0,.33,0,.66,0,1c-4.241,.424-8.282,.676-12,3Z" fill="#4D4D4D"/>
<path d="M138,216c-1.32,0-2.64,0-4,0c-.33,.66-.66,1.32-1,2c-.352-2.464-1.879-7.121,0-9c.99,.33,1.98,.66,3,1c-.33,1.65-.66,3.3-1,5c.99,.33,1.98,.66,3,1Z" fill="#886A51"/>
<path d="M218,200c-.349-2.66-1.892-8.108,0-10c1.414,2.639,2.372,5.071,3,8c-.99,.66-1.98,1.32-3,2Z" fill="#695747"/>
<path d="M81,170c-2.31-.66-4.62-1.32-7-2c0,.66,0,1.32,0,2c-3.875-1.75-3.875-1.75-5-4c4.902,.298,8.599-.105,12,4Z" fill="#D4C175"/>
<path d="M132,169c.66-1.98,1.32-3.96,2-6c.99,0,1.98,0,3,0c0-.99,0-1.98,0-3c.33,0,.66,0,1,0c.924,5.547-1.621,6.537-6,9Z" fill="#3F709C"/>
<path d="M149,162c1-3.333,2-6.667,3-10c.66,0,1.32,0,2,0c-.667,3.333-1.333,6.667-2,10c-.99,0-1.98,0-3,0Z" fill="#D1A7A6"/>
<path d="M176,152c-.99-.165-.99-.165-6-1c-.33-1.32-.66-2.64-1-4c4.185,.441,5.524,.841,7,5Z" fill="#D4AFAE"/>
<path d="M175,133c1.98,0,3.96,0,6,0c1.354,2.709,1.065,5.009,1,8c-3.302-1.651-3.408-5.606-7-8Z" fill="#DEB4B5"/>
<path d="M190,117c-.33-1.98-.66-3.96-1-6c2.31,0,4.62,0,7,0c0,.66,0,1.32,0,2c-2.446,1.141-4.078,2.078-6,4Z" fill="#C6A6A7"/>
<path d="M217,112c-2.4,1.6-4.702,3.257-7,5c-.66-.33-1.32-.66-2-1c.33-1.32,.66-2.64,1-4c2.64,0,5.28,0,8,0Z" fill="#E1C4C2"/>
<path d="M130,100c-3.385-1.209-4.993-.826-8,1c0-1.32,0-2.64,0-4c3.969-1.985,5.791-.314,8,3Z" fill="#420C0B"/>
<path d="M164,83c-3.086-1.543-4.593-4.815-3-8c1.65,.99,3.3,1.98,5,3c-.66,1.65-1.32,3.3-2,5Z" fill="#1D1710"/>
<path d="M66,247c-1.377-4.087-.096-9.904,3-13c1.58,4.74-1.131,8.724-3,13Z" fill="#2B0303"/>
<path d="M94,226c-4.054,1.158-6.218,.837-10-1c0-.33,0-.66,0-1c2.97,0,5.94,0,9,0c.33,.66,.66,1.32,1,2Z" fill="#190100"/>
<path d="M86,198c1.557,1.265,6,4.171,6,6c-4.963,.392-7.847-.458-6-6Z" fill="#3D0303"/>
<path d="M138,201c2.545-2.799,5.076-5,9-5c0,5.505-4.896,5.274-9,5Z" fill="#2A0403"/>
<path d="M124,196c0-1.32,0-2.64,0-4c-.66,0-1.32,0-2,0c.33-1.32,.66-2.64,1-4c.99,0,1.98,0,3,0c.156,3.589,.681,5.319-2,8Z" fill="#530A08"/>
<path d="M228,187c5.66-7,5.66-7,9-7c0,.66,0,1.32,0,2c-.99,0-1.98,0-3,0c-.33,1.32-.66,2.64-1,4c-1.65,.33-3.3,.66-5,1Z" fill="#0F0806"/>
<path d="M92,173c.66-.33,1.32-.66,2-1c0-.66,0-1.32,0-2c1.65-.66,3.3-1.32,5-2c.33,1.32,.66,2.64,1,4c-2.64,.33-5.28,.66-8,1Z" fill="#487387"/>
<path d="M180,159c-.66-.33-1.32-.66-2-1c0-.66,0-1.32,0-2c3.088-1.765,4.233-2,8-2c0,.66,0,1.32,0,2c-2.894,.445-4.589,.177-6,3Z" fill="#D7ACAB"/>
<path d="M135,155c2.258-5,2.258-5,6-5c.33,.99,.66,1.98,1,3c-2.647,1.461-3.894,2-7,2Z" fill="#041631"/>
<path d="M186,140c3.028,3.028,3.313,5.062,2,9c-.99,0-1.98,0-3,0c-1.255-3.766-.371-5.372,1-9Z" fill="#C29596"/>
<path d="M217,144c0-2.31,0-4.62,0-7c-.66-.33-1.32-.66-2-1c.33-.66,.66-1.32,1-2c4.043,2.695,3.248,4.541,3,9c-.33,.165-.33,.165-2,1Z" fill="#45678B"/>
<path d="M151,131c.95,1.899,1.102,2.051,3,3c-.33,.495-.33,.495-2,3c-3.298-.888-6.63-1.464-10-2c0-.33,0-.66,0-1c2.97,0,5.94,0,9,0c0-.99,0-1.98,0-3Z" fill="#101E2C"/>
<path d="M62,104c-1.511-4.533,.659-6.24,3-10c.934,3.01,1.044,3.867,0,7c-.66,0-1.32,0-2,0c-.33,.99-.66,1.98-1,3Z" fill="#383030"/>
<path d="M86,66c-.33-.99-.66-1.98-1-3c-.66,0-1.32,0-2,0c.523-2.763,1.109-5.326,2-8c2.786,4.18,1.796,6.147,1,11Z" fill="#412F2F"/>
<path d="M150,67c-1.32-.66-2.64-1.32-4-2c0-.66,0-1.32,0-2c.66,0,1.32,0,2,0c0-1.98,0-3.96,0-6c.66,0,1.32,0,2,0c0,3.3,0,6.6,0,10Z" fill="#030101"/>
<path d="M132,53c.33-.66,.66-1.32,1-2c2.601,1.357,4.994,3,8,3c0,.66,0,1.32,0,2c-3.75,1.125-3.75,1.125-6,0c0-.66,0-1.32,0-2c-.99-.33-1.98-.66-3-1Z" fill="#D6A379"/>
<path d="M137,57c-5.249,.342-8,.197-8-6c1.98,.99,3.96,1.98,6,3c0,.66,0,1.32,0,2c.66,.33,1.32,.66,2,1Z" fill="#D1925D"/>
<path d="M115,40c0-.99,0-1.98,0-3c.66,0,1.32,0,2,0c0-1.65,0-3.3,0-5c1.32,0,2.64,0,4,0c-1.443,3.366-3.333,5.51-6,8Z" fill="#BC372F"/>
<path d="M93,33c-2.068-2.068-2-2.07-2-5c3.667,.333,7.333,.667,11,1c0,.33,0,.66,0,1c-2.64,0-5.28,0-8,0c-.33,.99-.66,1.98-1,3Z" fill="#B24942"/>
<path d="M97,8c.825,.165,.825,.165,5,1c.33,.99,.66,1.98,1,3c-1.65,.33-3.3,.66-5,1c-.165-.825-.165-.825-1-5Z" fill="#251D1C"/>
<path d="M80,266c.825,.165,.825,.165,5,1c0-2.96,2.207-4,5-4c-1.454,5.007-4.474,4.665-9,5c-.33-.66-.66-1.32-1-2Z" fill="#352E2D"/>
<path d="M84,261c.33-2.97,.66-5.94,1-9c.33,0,.66,0,1,0c0,1.98,0,3.96,0,6c.66,0,1.32,0,2,0c0,.99,0,1.98,0,3c-1.32,0-2.64,0-4,0Z" fill="#C83E34"/>
<path d="M96,256c-3.491-2.653-3.171-4.06-2-8c1.32,.66,2.64,1.32,4,2c-.66,1.98-1.32,3.96-2,6Z" fill="#402B2B"/>
<path d="M235,219c-2.553,3.224-4.077,3.318-8,3c.33-.99,.66-1.98,1-3c2.31,0,4.62,0,7,0Z" fill="#241F1B"/>
<path d="M132,221c0-.66,0-1.32,0-2c3.721-1.24,7.149-1.063,11-1c0,.33,0,.66,0,1c-1.65,.33-3.3,.66-5,1c0,.33,0,.66,0,1c-1.98,0-3.96,0-6,0Z" fill="#070200"/>
<path d="M115,207c.33-1.32,.66-2.64,1-4c2.31,0,4.62,0,7,0c0,.66,0,1.32,0,2c-3.01,.934-3.867,1.044-7,0c-.33,.66-.66,1.32-1,2Z" fill="#6D6D6D"/>
<path d="M84,176c-5.055,1.264-9.201,.397-11-5c3.667,1.667,7.333,3.333,11,5Z" fill="#040D1C"/>
<path d="M101,159c-.33,.165-.33,.165-2,1c.33,1.32,.66,2.64,1,4c-2.31-1.32-4.62-2.64-7-4c0-.33,0-.66,0-1c2.64,0,5.28,0,8,0Z" fill="#5B6850"/>
<path d="M58,149c3.224,2.553,3.318,4.077,3,8c-.99-.33-1.98-.66-3-1c0-2.31,0-4.62,0-7Z" fill="#0E0501"/>
<path d="M138,115c2.382,1.786,5,2.908,5,6c-1.98,0-3.96,0-6,0c0-.66,0-1.32,0-2c.66-.33,1.32-.66,2-1c-.33-.99-.66-1.98-1-3Z" fill="#CDAE89"/>
<path d="M219,120c.875-5.75,.875-5.75,2-8c.66,0,1.32,0,2,0c0,2.31,0,4.62,0,7c-1.32,.33-2.64,.66-4,1Z" fill="#211818"/>
<path d="M80,69c3.129,3.129,1.309,6.072,0,10c-.66,0-1.32,0-2,0c.667-3.333,1.333-6.667,2-10Z" fill="#231D1D"/>
<path d="M55,236c-.95-1.899-1.102-2.051-3-3c.99-1.32,1.98-2.64,3-4c.99,.33,1.98,.66,3,1c-.99,1.98-1.98,3.96-3,6Z" fill="#010611"/>
<path d="M181,206c-3.478,1.159-5.459,.708-9,0c0-.66,0-1.32,0-2c2.64,0,5.28,0,8,0c.33,.66,.66,1.32,1,2Z" fill="#886B51"/>
<path d="M231,182c0-4,0-4,1-5c.99,.33,1.98,.66,3,1c0,.99,0,1.98,0,3c-1.32,.33-2.64,.66-4,1Z" fill="#7C6959"/>
<path d="M115,177c-2.31,.33-4.62,.66-7,1c-.33-.66-.66-1.32-1-2c2.463-1.231,4.28-1.072,7-1c.33,.66,.66,1.32,1,2Z" fill="#3D709D"/>
<path d="M138,176c-2.818-1.409-2.548-3.063-3-6c2.355-1.177,2.552-.816,5,0c-.66,1.98-1.32,3.96-2,6Z" fill="#1C110F"/>
<path d="M156,165c-.333,3.333-.667,6.667-1,10c-.66,0-1.32,0-2,0c0-3.3,0-6.6,0-10c.99,0,1.98,0,3,0Z" fill="#D8A8A8"/>
<path d="M194,150c1.65,1.65,3.3,3.3,5,5c-3.75,1.125-3.75,1.125-6,0c.33-1.65,.66-3.3,1-5Z" fill="#1F151C"/>
<path d="M218,112c2.647-1.461,3.894-2,7-2c-.33,1.98-.66,3.96-1,6c-.66,0-1.32,0-2,0c.33-1.32,.66-2.64,1-4c-1.65,0-3.3,0-5,0Z" fill="#2A2828"/>
<path d="M180,108c0-.66,0-1.32,0-2c2.667-1.333,4.167-.671,7,0c0,.66,0,1.32,0,2c-2.31,0-4.62,0-7,0Z" fill="#AFACA9"/>
<path d="M168,84c.33,0,.66,0,1,0c.33,1.65,.66,3.3,1,5c.66,0,1.32,0,2,0c.33,1.32,.66,2.64,1,4c-.33,.165-.33,.165-2,1c-3.882-2.75-3.242-5.728-3-10Z" fill="#3F3730"/>
<path d="M181,62c-.66-.33-1.32-.66-2-1c-.049-2.316-.657-5.343,1-7c2.779,2.779,1.78,4.412,1,8Z" fill="#D8BFA2"/>
<path d="M100,225c1.858,3.135,2.201,5.375,2,9c-.99-.33-1.98-.66-3-1c.33-2.64,.66-5.28,1-8Z" fill="#250201"/>
<path d="M117,205c1.32,.33,2.64,.66,4,1c.33,1.65,.66,3.3,1,5c-3.735-1.245-3.798-2.394-5-6Z" fill="#0C0C0C"/>
<path d="M122,202c0,.33,0,.66,0,1c-5.299,1.617-7.998,2.813-13,0c0-.33,0-.66,0-1c4.333,0,8.667,0,13,0Z" fill="#5A5758"/>
<path d="M112,201c-2.666,1.777-5.028,2.875-8,4c0-5.722,3.349-4.085,8-4Z" fill="#110404"/>
<path d="M208,205c-.33-1.98-.66-3.96-1-6c1.65,0,3.3,0,5,0c-1.152,2.468-2.048,4.048-4,6Z" fill="#755C45"/>
<path d="M144,187c2.31,0,4.62,0,7,0c0,1.32,0,2.64,0,4c-.99,.33-1.98,.66-3,1c0-1.32,0-2.64,0-4c-1.32-.33-2.64-.66-4-1Z" fill="#CA3E35"/>
<path d="M211,145c-2.31,0-4.62,0-7,0c.33-.99,.66-1.98,1-3c2.939,.452,4.591,.181,6,3Z" fill="#3574B2"/>
<path d="M188,145c0-2.97,0-5.94,0-9c.66,0,1.32,0,2,0c1.334,3.603,.582,5.649-1,9c-.33,0-.66,0-1,0Z" fill="#DDADAE"/>
<path d="M197,126c.825,.165,.825,.165,5,1c0,1.65,0,3.3,0,5c-.33,.165-.33,.165-2,1c-.412-3.226,.039-5.481-3-7Z" fill="#D8B1B0"/>
<path d="M202,117c.66-1.32,1.32-2.64,2-4c1.32,.33,2.64,.66,4,1c-2.232,3.348-2.148,3-6,3Z" fill="#260F0E"/>
<path d="M187,115c-2.355,2.355-2.736,2-6,2c0-.99,0-1.98,0-3c2.708-1.354,3.498-.418,6,1Z" fill="#341B1A"/>
<path d="M82,82c2.667-1.333,4.167-.671,7,0c-.33,.99-.66,1.98-1,3c-3-1-3-1-6-3Z" fill="#4A0403"/>
<path d="M90,29c0-.99,0-1.98,0-3c.66,0,1.32,0,2,0c0-.66,0-1.32,0-2c1.65,0,3.3,0,5,0c0,.66,0,1.32,0,2c-1.155,.495-1.155,.495-7,3Z" fill="#463331"/>
</svg>
